<svg width="128" height="128" viewBox="0 0 128 128" fill="none" xmlns="http://www.w3.org/2000/svg">
<rect width="128" height="128" fill="#330000"/>
<path d="M62.4084 77.9214H42.8728L38.8817 90.9698C38.8276 91.1949 38.6967 91.3941 38.5115 91.533C38.3263 91.672 38.0985 91.742 37.8672 91.731H27.9721C27.4085 91.731 27.2109 91.4209 27.3795 90.8007L44.2448 42.0926C44.4145 41.5853 44.5834 41.0074 44.7515 40.3588C44.9839 39.4122 45.0978 38.4405 45.0908 37.4659C45.0793 37.3855 45.0867 37.3036 45.1124 37.2265C45.138 37.1495 45.1813 37.0795 45.2386 37.0221C45.296 36.9646 45.366 36.9213 45.443 36.8956C45.52 36.8699 45.6019 36.8624 45.6823 36.8738H59.1287C59.5227 36.8738 59.7493 37.0155 59.8051 37.2968L79.0536 90.885C79.2221 91.4497 79.0528 91.7317 78.5458 91.731H67.5513C67.3624 91.7519 67.1724 91.7033 67.0167 91.5944C66.8611 91.4854 66.7504 91.3235 66.7053 91.139L62.4084 77.9214ZM45.8087 68.9214H60.1227C59.7845 67.7942 58.6212 65.1887 58.1703 63.7786C57.7183 62.3701 57.0996 61.2483 56.5918 59.6411C56.084 58.0345 55.5766 56.4278 55.0695 54.8208C54.5617 53.2136 54.0967 51.6631 53.6745 50.169C53.2515 48.6757 52.8709 47.3085 52.5327 46.0675H52.4479C51.9723 48.3517 51.3792 50.61 50.6711 52.8332C49.8809 55.3706 49.0777 57.9641 48.2615 60.6139C47.4435 63.2644 46.5967 66.667 45.8087 68.9214Z" fill="#FF9A00"/>
<path d="M90.4925 45.7032C89.6299 45.7377 88.7697 45.5899 87.9681 45.2693C87.1665 44.9487 86.4416 44.4625 85.8407 43.8426C85.2415 43.1957 84.7761 42.4368 84.4712 41.6095C84.1663 40.7822 84.0279 39.9027 84.064 39.0217C84.0334 38.1495 84.1872 37.2806 84.5152 36.4718C84.8433 35.663 85.3383 34.9326 85.968 34.3281C86.5912 33.7298 87.3269 33.2611 88.1324 32.949C88.938 32.637 89.7974 32.4878 90.661 32.51C91.5403 32.4617 92.42 32.5986 93.243 32.9117C94.0661 33.2249 94.8142 33.7075 95.4389 34.3281C96.0227 34.9578 96.4763 35.6966 96.7739 36.502C97.0716 37.3075 97.2073 38.1637 97.1733 39.0217C97.2086 39.9062 97.0658 40.7887 96.7533 41.6169C96.4408 42.4451 95.9649 43.202 95.3541 43.8426C94.7162 44.4717 93.9549 44.9617 93.1181 45.282C92.2814 45.6022 91.3874 45.7456 90.4925 45.7032ZM85.0167 90.8897V52.2231C85.0167 51.7153 85.241 51.4619 85.6942 51.4619H95.3035C95.7544 51.4619 95.9799 51.7157 95.9799 52.2231V90.8897C95.9799 91.4545 95.7544 91.7365 95.3035 91.7357H85.7779C85.2701 91.7357 85.0163 91.4537 85.0167 90.8897Z" fill="#FF9A00"/>
</svg>
