<svg width="48" height="48" xmlns="http://www.w3.org/2000/svg">

 <g>
  <title>background</title>
  <rect fill="none" id="canvas_background" height="602" width="802" y="-1" x="-1"/>
 </g>
 <g>
  <title>Layer 1</title>
  <g stroke="null" id="svg_5">
   <path stroke="null" id="svg_1" d="m42.51046,22.14839l-15.30893,-15.92c-1.89991,-1.82958 -5.02199,-1.82958 -6.78032,0l-14.77366,15.3683c-5.60018,5.68787 3.79709,5.23116 7.13655,7.38592c1.54003,1.01938 -4.53787,2.33744 -3.21524,3.682c1.28884,1.35278 7.37678,2.57128 8.66562,3.88204c1.28884,1.34455 -2.58133,2.77588 -1.28427,4.12044c1.25595,1.34455 4.04006,0.06394 4.58446,3.12116c0.39368,2.26346 5.27866,1.12625 7.57225,-0.8029c1.43133,-1.23586 -2.50277,-1.23494 -1.21394,-2.58772c1.15548,-1.18562 2.2598,-1.71266 3.26456,-2.03784c1.79944,-0.59281 3.85463,-0.46036 4.61643,-2.43153c0.64487,-1.63685 -4.81007,-2.91746 -3.33764,-3.96972c3.51484,-2.51282 16.03418,-3.76329 10.07411,-9.81013zm-16.94212,10.93638c-1.94193,0.66862 -10.83956,-3.60618 -8.50394,-3.60618c0.4019,0.00091 13.56795,1.88621 8.50394,3.60618zm11.82879,4.63652c-1.68709,1.73915 0.29321,3.56143 1.94376,2.36028c0.44118,-0.33157 -0.03562,-1.9465 -1.94376,-2.36028zm1.23677,-1.68617c0,0.82116 5.76642,1.28975 5.44855,-0.19547c-0.45945,-2.50186 -4.81099,-2.30639 -5.44855,0.19547z" fill="#212121"/>
   <path stroke="null" id="svg_2" d="m10.8029,40.86437c1.34912,1.42037 3.3897,-0.31056 4.04645,-2.30821c-1.31259,-2.08625 -6.16102,0.13336 -4.04645,2.30821z" fill="#212121"/>
   <path stroke="null" id="svg_3" d="m26.53017,8.13561l-4.09212,6.93286l-7.25256,12.29464c-1.4158,-0.53892 -2.93208,-0.86775 -4.34788,-1.12351c-0.54805,-0.17355 -1.10524,-0.32883 -1.66243,-0.47498c-1.0413,-0.28316 -2.93208,-0.80381 -3.41619,-1.25139c0.06394,-0.19182 0.31056,-0.71247 1.23312,-1.65329l7.01507,-7.28909l7.76407,-8.07464c0.50238,-0.52065 1.21485,-0.81294 2.01866,-0.81294s1.58935,0.30143 2.15567,0.84035l0.58459,0.61199z" fill="#424242"/>
   <path stroke="null" id="svg_4" d="m32.28472,14.10938c-0.0274,0.09134 -0.07307,0.16442 -0.11874,0.21922l-2.78593,-2.29269l-0.54805,3.37052l-2.29269,-1.25139l-3.73589,2.39316l-0.36537,-1.47974l-0.86775,-3.55321l-1.99126,4.37528l-4.97814,-0.03654c-0.31056,0 -0.50238,-0.10961 -0.59372,-0.28316l7.76407,-8.07464c0.50238,-0.52065 1.21485,-0.81294 2.01866,-0.81294s1.58935,0.30143 2.15567,0.84035l0.58459,0.61199l5.75455,5.97377z" fill="#fafafa"/>
  </g>
 </g>
</svg>