<svg width="256" height="256" xmlns="http://www.w3.org/2000/svg" preserveAspectRatio="xMinYMin meet">

 <g>
  <title>background</title>
  <rect fill="none" id="canvas_background" height="258" width="258" y="-1" x="-1"/>
 </g>
 <g>
  <title>Layer 1</title>
  <path stroke="null" id="svg_1" fill="#DC395F" d="m239.07061,-11l-225.14121,0c-13.76826,0 -24.92939,11.16113 -24.92939,24.92939l0,225.14121c0,13.76826 11.16113,24.92939 24.92939,24.92939l225.14121,0c13.76826,0 24.92939,-11.16113 24.92939,-24.92939l0,-225.14121c0,-13.76826 -11.16113,-24.92939 -24.92939,-24.92939"/>
  <path id="svg_2" fill="#FFF" d="m85.555,80.545c8.51,0 15.639,-6.67 15.639,-15.412c0,-8.736 -7.129,-15.405 -15.639,-15.405s-15.637,6.669 -15.637,15.405c0,8.741 7.127,15.412 15.637,15.412m-32.426,82.52c-0.919,3.91 -1.38,8.132 -1.38,11.576c0,13.571 7.359,22.58 22.998,22.58c12.97,0 23.485,-7.702 31.056,-20.139l-4.623,18.553l25.755,0l14.72,-59.039c3.68,-14.948 10.809,-22.707 21.619,-22.707c8.509,0 13.798,5.292 13.798,14.028c0,2.531 -0.23,5.288 -1.15,8.279l-7.59,27.137c-1.15,3.91 -1.608,7.822 -1.608,11.499c0,12.883 7.587,22.306 23.456,22.306c13.569,0 24.377,-8.735 30.357,-29.664l-10.118,-3.906c-5.06,14.021 -9.43,16.556 -12.88,16.556c-3.45,0 -5.29,-2.298 -5.29,-6.895c0,-2.07 0.462,-4.367 1.15,-7.133l7.361,-26.438c1.839,-6.208 2.53,-11.713 2.53,-16.771c0,-19.778 -11.96,-30.1 -26.448,-30.1c-13.568,0 -27.368,12.239 -34.266,25.12l5.058,-23.12l-39.324,0l-5.52,20.364l18.399,0l-11.33,45.36c-8.897,19.778 -25.24,20.099 -27.291,19.64c-3.368,-0.76 -5.522,-2.039 -5.522,-6.415c0,-2.525 0.46,-6.152 1.61,-10.525l17.25,-68.424l-43.696,0l-5.52,20.364l18.167,0l-11.727,47.914"/>
 </g>
</svg>