<svg width="128" height="128" viewBox="0 0 128 128" fill="none" xmlns="http://www.w3.org/2000/svg">
<rect width="128" height="128" fill="#370000"/>
<path d="M28.683 87.6874L28.6596 87.6718C28.0598 87.2719 27.8459 86.6104 27.8459 85.9191V77.7602C27.8459 77.5843 27.8622 77.3886 27.9237 77.2041C27.9858 77.0177 28.1205 76.7706 28.4024 76.6296C28.6843 76.4887 28.9627 76.5292 29.1492 76.5914C29.3292 76.6514 29.492 76.7522 29.6305 76.8551C34.1329 79.9991 38.7645 81.5504 43.5372 81.5504C46.5778 81.5504 48.6516 80.9487 49.9076 79.8864C51.2505 78.7419 51.9064 77.3279 51.9064 75.5956C51.9064 73.9286 51.3819 72.5474 50.3425 71.4091L50.331 71.3965C49.3262 70.2409 47.3088 68.932 44.1602 67.4958L44.1509 67.4916L40.9873 65.9929C36.4973 63.8602 33.1956 61.4979 31.1581 58.8784L31.1535 58.8725C29.1044 56.1792 28.1223 52.9412 28.1789 49.1985C28.1802 44.6193 29.8722 40.7685 33.2372 37.6935C36.6273 34.5958 41.3997 33.0964 47.4501 33.0964C52.4833 33.0964 56.5646 33.8738 59.6411 35.486C60.3673 35.7642 60.5606 36.4977 60.5606 37.1321V44.7082C60.5606 45.0493 60.4394 45.3714 60.1874 45.6234L60.1065 45.7044L60.0041 45.7556C59.7747 45.8702 59.5427 45.871 59.3644 45.8413C59.1875 45.8118 59.0207 45.7459 58.8735 45.6723L58.8413 45.6562L58.8108 45.6369C55.4354 43.4938 51.6 42.4166 47.2836 42.4166C44.3768 42.4166 42.4052 43.0916 41.2054 44.2913C39.9814 45.5154 39.414 46.8142 39.414 48.2049C39.414 49.6969 39.9056 51.004 40.9059 52.1544C41.9126 53.3121 43.9046 54.6204 46.9942 56.0552L50.329 57.5558C55.2527 59.8498 58.7395 62.3267 60.676 65.0244C62.6061 67.6578 63.5578 70.8049 63.5578 74.43C63.5578 79.5104 61.6982 83.6031 57.9688 86.6332C54.3102 89.595 49.3895 91.0372 43.2874 91.0372C37.5922 91.0372 32.7217 89.9375 28.7075 87.7011L28.683 87.6874Z" fill="#FA0F00"/>
<path fill-rule="evenodd" clip-rule="evenodd" d="M86.2423 90.0671C84.7235 90.0671 83.4538 89.9885 82.4521 89.8196V105.263C82.4521 105.58 82.3834 105.927 82.1578 106.217C81.9229 106.519 81.593 106.664 81.2636 106.711L81.243 106.714L81.2224 106.715C78.5629 106.937 75.5697 107.214 72.2425 107.547L72.2075 107.55H72.1723C71.8693 107.55 71.5124 107.474 71.2363 107.198C70.9602 106.922 70.884 106.565 70.884 106.262V55.9765C70.884 55.061 70.8026 53.4464 70.636 51.1148L70.6342 51.0897V51.0645C70.6342 50.8713 70.6697 50.6434 70.7972 50.4309C70.9331 50.2045 71.138 50.055 71.3664 49.9789L71.3713 49.9772C78.2298 47.7469 83.916 46.6125 88.4069 46.6125C94.8262 46.6125 99.8411 48.5497 103.337 52.5103C106.856 56.4342 108.594 61.4391 108.594 67.4656C108.594 74.6651 106.405 80.2901 101.945 84.2291C97.5378 88.121 92.2916 90.0671 86.2423 90.0671ZM93.8673 78.1605C95.8266 75.8919 96.8593 72.5572 96.8593 68.0484C96.8593 63.8634 95.9611 60.7705 94.2679 58.6668C92.5798 56.5694 90.3181 55.5165 87.4079 55.5165C85.9082 55.5165 84.2576 55.7602 82.4521 56.2584V80.6854C83.6979 81.2739 85.1769 81.5793 86.9083 81.5793C89.6225 81.5793 91.9288 80.4656 93.8612 78.1676L93.8673 78.1605Z" fill="#FA0F00"/>
</svg>
