<svg width="47.99999999999999" height="47.99999999999999" xmlns="http://www.w3.org/2000/svg">
 <defs>
  <linearGradient y2="1.06997" y1="-0.06997" x2="0.62114" x1="0.37886" id="NX4qzaRknlkLIGuB5rRvAa">
   <stop stop-color="#636363" offset="0"/>
   <stop stop-color="#444" offset="1"/>
  </linearGradient>
  <linearGradient y2="0.49993" y1="0.49993" x2="1" x1="0" id="NX4qzaRknlkLIGuB5rRvAb">
   <stop stop-color="#ff9c0f" offset="0"/>
   <stop stop-color="#d67e00" offset="0.813"/>
  </linearGradient>
 </defs>
 <g>
  <title>background</title>
  <rect fill="none" id="canvas_background" height="602" width="802" y="-1" x="-1"/>
 </g>
 <g>
  <title>Layer 1</title>
  <rect stroke="null" id="svg_2" rx="2" fill="url(#NX4qzaRknlkLIGuB5rRvAa)" y="-1.11858" x="-1.45756" height="50.57614" width="50.57614"/>
  <g stroke="null" id="svg_8">
   <path stroke="null" id="svg_3" opacity="0.05" d="m12.41173,42.11791a2.315,2.315 0 0 1 -2.315,-2.315l0,-6.82925a2.89375,2.89375 0 0 1 1.6205,-2.63331l6.63364,-2.11244l-6.63364,-2.11244a2.3069,2.3069 0 0 1 -1.6205,-2.2062l0,-7.56774a2.3069,2.3069 0 0 1 1.6205,-2.2062l23.15002,-7.78419a2.315,2.315 0 0 1 3.0095,2.19925l0,7.25174a2.3069,2.3069 0 0 1 -1.6205,2.2062l-6.63364,2.11707l6.63364,2.11244a2.3069,2.3069 0 0 1 1.6205,2.2062l0,7.56774a2.3069,2.3069 0 0 1 -1.6205,2.2062l-23.15002,7.7923a2.315,2.315 0 0 1 -0.6945,0.10765zm23.15002,-33.56752l-23.15002,7.79114l0,7.56774l13.57401,4.31864l-13.57401,4.74575l0,6.82925l23.15002,-7.7923l0,-7.56658l-13.57401,-4.31864l13.57401,-4.31864l0,-7.25637z" fill="#1d1d1b"/>
   <path stroke="null" id="svg_4" opacity="0.07" d="m12.41173,41.53916a1.73625,1.73625 0 0 1 -1.73625,-1.73625l0,-6.82925a1.72931,1.72931 0 0 1 1.21075,-1.65523l8.3722,-3.09053l-8.3722,-2.66225a1.72815,1.72815 0 0 1 -1.21075,-1.65638l0,-7.56774a1.72815,1.72815 0 0 1 1.21075,-1.65638l23.15002,-7.78767a1.73625,1.73625 0 0 1 2.26176,1.65291l0,7.25174a1.72815,1.72815 0 0 1 -1.21075,1.66101l-8.3722,2.66225l8.3722,2.66225a1.72815,1.72815 0 0 1 1.21075,1.65638l0,7.56774a1.72815,1.72815 0 0 1 -1.21075,1.65638l-23.15002,7.7923a1.72005,1.72005 0 0 1 -0.52551,0.07871zm22.80277,-34.08724l0.17594,0.55097l-23.15002,7.78767a0.57875,0.57875 0 0 0 -0.40397,0.55097l0,7.56774a0.57875,0.57875 0 0 0 0.40397,0.55097l11.8366,3.76767l-11.84008,4.19363a0.57875,0.57875 0 0 0 -0.40397,0.55213l0,6.82925a0.57875,0.57875 0 0 0 0.23729,0.463a0.56602,0.56602 0 0 0 0.51625,0.0845l23.15002,-7.7923a0.57875,0.57875 0 0 0 0.40397,-0.55097l0,-7.56311a0.57875,0.57875 0 0 0 -0.40397,-0.55097l-11.84008,-3.76767l11.84008,-3.76767a0.57875,0.57875 0 0 0 0.40397,-0.55097l0,-7.25637a0.57875,0.57875 0 0 0 -0.75353,-0.55213l-0.17247,-0.54634z"/>
   <g stroke="null" id="svg_7">
    <path stroke="null" id="svg_5" d="m35.909,33.11487l-23.15002,7.7923a1.1575,1.1575 0 0 1 -1.50475,-1.10426l0,-6.82925a1.1575,1.1575 0 0 1 0.81025,-1.10194l23.15002,-7.7923a1.1575,1.1575 0 0 1 1.50475,1.1031l0,6.82925a1.1575,1.1575 0 0 1 -0.81025,1.1031z" fill="url(#NX4qzaRknlkLIGuB5rRvAb)"/>
    <path stroke="null" id="svg_6" d="m35.2145,7.45191l-23.15002,7.78651a1.1575,1.1575 0 0 0 -0.81025,1.1031l0,7.56774a1.1575,1.1575 0 0 0 0.81025,1.1031l24.37812,7.75526a1.34502,1.34502 0 0 0 0.25002,-0.48962a3.31855,3.31855 0 0 0 0.02662,-0.62158l0,-7.21239a1.1575,1.1575 0 0 0 -0.81025,-1.1031l-10.10382,-3.21554l10.10382,-3.21554a1.1575,1.1575 0 0 0 0.81025,-1.1031l0,-7.25637a1.1575,1.1575 0 0 0 -1.50475,-1.09847z" fill="#ff9c0f"/>
   </g>
  </g>
 </g>
</svg>