<?xml version="1.0" encoding="UTF-8"?><svg version="1.1" xmlns="http://www.w3.org/2000/svg" xmlns:xlink="http://www.w3.org/1999/xlink" x="0px" y="0px" viewBox="0 0 1600 1200" style="enable-background:new 0 0 1600 1200;" xml:space="preserve" width="1600px" height="1200px">

<g id="ground">
	<g>
		<g>
			<path d="M164.7,975.9c176.2,0,352.3,0,528.5,0c175.3,0,350.6,0,525.8,0c98.9,0,197.7,0,296.6,0c1.9,0,1.9-3,0-3
				c-176.2,0-352.3,0-528.5,0c-175.3,0-350.6,0-525.8,0c-98.9,0-197.7,0-296.6,0C162.8,972.9,162.8,975.9,164.7,975.9L164.7,975.9z" style="fill:#E8E8E8;"/>
		</g>
	</g>
	<g>
		<g>
			<path d="M537.6,971.7c-10.2-4.7-18.9-12.2-24.7-21.9c-2.7-4.5-5-9.6-6.2-14.7c-1.1-5.1,0.9-10.3,6.9-9.5
				c3.9,0.5,7,3.1,9.8,5.5c0.6-0.8,1.2-1.6,1.8-2.4c-6.5-4.2-11.6-10-14.7-17.1c-2.1-4.9-7-20.4,1.4-21.9c1-0.2,1.3-1.4,0.9-2.2
				c-8-16.5-9.9-34.9-11.6-52.9c-0.8-8.6-1.6-19,5.1-25.6c7.9-8,18.8-2.4,25.4,4.4c12.3,12.7,18.7,30.8,25.2,46.9
				c6.8,16.9,12.7,34.1,17,51.7c4.9,20.4,7.5,41.3,6.4,62.2c-0.1,1.9,2.9,1.9,3,0c2.2-42.8-10.7-84.3-27-123.3
				c-6.7-16-14.3-36.6-30.1-45.8c-6.1-3.5-13.5-4.5-19.5-0.3c-6.1,4.3-8.4,11.9-8.8,19c-0.5,10.9,1.4,22.4,3.1,33.1
				c1.7,11.1,4.5,22,9.4,32.1c0.3-0.7,0.6-1.5,0.9-2.2c-8.8,1.6-7,14.3-5.3,20.4c2.7,10,9.2,18.5,17.9,24.1c1.4,0.9,3.1-1.3,1.8-2.4
				c-4.8-4-10.9-8.5-17.4-5.6c-6.9,3.1-5,11.1-3,16.8c5.2,15.1,16.6,27.5,31,34.1C537.8,975.1,539.4,972.5,537.6,971.7L537.6,971.7z
				" style="fill:#E8E8E8;"/>
		</g>
	</g>
	<g>
		<g>
			<path d="M569.5,884.7c-3.2-23.9-2.2-47.3,5.3-70.3c3.6-11.1,7.4-22.1,11.1-33.1c3-8.9,8.3-25.4,21-17.7
				c9.1,5.5,10.8,20.1,12.9,29.6c2.6,11.6,4.4,23.3,5.5,35.2c2.1,22.4,1.8,45.1-0.6,67.5c-2.8,26.4-8.3,52.5-15.8,77.9
				c-0.5,1.9,2.3,2.6,2.9,0.8c14.5-49.3,21.8-101.4,15.8-152.6c-1.4-12.4-3.6-24.7-6.6-36.7c-2.3-9-4.7-20.3-13.8-24.9
				c-7.5-3.7-14.7-0.1-18.7,6.7c-2.3,3.9-3.6,8.4-5.1,12.6c-2.2,6.6-4.4,13.1-6.6,19.7c-4.4,13.2-9.1,26.2-10.9,40.1
				c-1.9,15-1.3,30.2,0.7,45.2C566.7,886.6,569.7,886.6,569.5,884.7L569.5,884.7z" style="fill:#E8E8E8;"/>
		</g>
	</g>
	<g>
		<g>
			<path d="M509.4,807.1c28.8,51.3,51.5,107.1,56.7,166.3c0.2,1.9,3.2,1.9,3,0c-5.3-59.7-28-115.9-57.1-167.8
				C511.1,803.9,508.5,805.4,509.4,807.1L509.4,807.1z" style="fill:#E8E8E8;"/>
		</g>
	</g>
	<g>
		<g>
			<path d="M601.2,762.2c2.4,17.5,1.5,35.2,0.8,52.8c-0.7,17.3-1.4,34.6-2.1,52c-1.4,35.2-2.3,70.7-8.8,105.4
				c-0.3,1.9,2.5,2.7,2.9,0.8c6.5-35,7.5-70.7,8.9-106.2c0.7-18,1.5-36,2.2-53.9c0.7-17.2,1.4-34.5-1-51.6
				C603.9,759.5,601,760.4,601.2,762.2L601.2,762.2z" style="fill:#E8E8E8;"/>
		</g>
	</g>
	<g>
		<g>
			<path d="M572.5,812.7c12.7,17.1,21.8,36.5,26.6,57.2c0.4,1.9,3.3,1.1,2.9-0.8c-4.9-21-14-40.7-26.9-58
				C574,809.6,571.4,811.1,572.5,812.7L572.5,812.7z" style="fill:#E8E8E8;"/>
		</g>
	</g>
	<g>
		<g>
			<path d="M620.2,791.9c-8.1,14.7-14.5,30.2-19.2,46.4c-0.5,1.9,2.4,2.7,2.9,0.8c4.6-15.9,11-31.2,18.9-45.7
				C623.7,791.8,621.1,790.2,620.2,791.9L620.2,791.9z" style="fill:#E8E8E8;"/>
		</g>
	</g>
	<g>
		<g>
			<path d="M511.6,889.4c21.1,8.6,38.6,24.3,49.7,44.2c0.9,1.7,3.5,0.2,2.6-1.5c-11.5-20.6-29.7-36.6-51.5-45.5
				C510.6,885.7,509.9,888.6,511.6,889.4L511.6,889.4z" style="fill:#E8E8E8;"/>
		</g>
	</g>
	<g>
		<g>
			<path d="M539.8,821.9c-1.8,17.1-1,34.2,2.2,51.1c0.4,1.9,3.3,1.1,2.9-0.8c-3.1-16.6-3.8-33.5-2.1-50.3
				C543,820,540,820,539.8,821.9L539.8,821.9z" style="fill:#E8E8E8;"/>
		</g>
	</g>
	<g>
		<g>
			<path d="M183.1,972.3c-2.3-6.7-4-13.7-4.8-20.8c-0.3-3-0.5-6-0.5-9.1c0-1.6-0.3-3.9,0.1-5.4c0-0.6,0.1-1.2,0.1-1.8
				c1.9-1.4,3.5-1.2,4.8,0.5c0.9,0.8,2.7,0.3,2.6-1.1c-0.3-4.1-0.3-8.2,0.2-12.3c0.3-2,0.6-4,1.1-5.9c0.2-0.7,2.6-7.5,2.8-7.2
				c0.7,1,2.4,1,2.7-0.4c4.3-17.7,12-34.2,21.4-49.7c2.4-4,5-8,7.6-11.9c2.9-4.3,7.7-11.1,12.1-3.6c4.5,7.6,5.8,18.7,6.2,27.4
				c1,18.4-3.2,36.7-9.1,54c-5.7,16.9-12.8,33.8-25,47.1c-1.3,1.4,0.8,3.5,2.1,2.1c10.6-11.5,17.3-25.6,22.8-40.1
				c5.8-15.5,10.5-31.6,11.9-48.1c0.7-8,0.6-16.1-0.6-24.1c-1-6.9-2.5-15.7-6.8-21.5c-8.9-11.8-19.2,9.7-22.9,15.7
				c-10,16.2-18.1,33.4-22.6,51.9c0.9-0.1,1.8-0.2,2.7-0.4c-2.5-3.3-5.6,0-6.7,2.8c-3.1,7.5-3.7,16.2-3,24.1
				c0.9-0.4,1.7-0.7,2.6-1.1c-1.9-1.7-5-3.9-7.7-2.6c-2.8,1.4-2.4,5.2-2.4,7.8c-0.3,11.7,1.6,23.2,5.4,34.3
				C180.8,974.9,183.7,974.1,183.1,972.3L183.1,972.3z" style="fill:#E8E8E8;"/>
		</g>
	</g>
	<g>
		<g>
			<path d="M229.3,840.2c-3.4,23.6-9.1,46.8-17.2,69.2c-7.5,21-20.1,41.3-22.9,63.7c-0.2,1.9,2.8,1.9,3,0
				c1.5-11.9,6.1-22.9,10.9-33.7c4.5-10.2,8.8-20.5,12.5-31c7.7-21.9,13.2-44.5,16.5-67.5C232.4,839.1,229.5,838.3,229.3,840.2
				L229.3,840.2z" style="fill:#E8E8E8;"/>
		</g>
	</g>
	<g>
		<g>
			<path d="M201.7,875.9c1.1,15.9,2.7,31.7,4.8,47.5c0.3,1.9,3.1,1.1,2.9-0.8c-2.1-15.5-3.7-31.1-4.7-46.7
				C204.6,874,201.6,873.9,201.7,875.9L201.7,875.9z" style="fill:#E8E8E8;"/>
		</g>
	</g>
	<g>
		<g>
			<path d="M220.4,893.8c8-7.9,14.9-16.8,20.7-26.4c1-1.7-1.6-3.2-2.6-1.5c-5.7,9.4-12.4,18-20.2,25.8
				C216.9,893,219,895.1,220.4,893.8L220.4,893.8z" style="fill:#E8E8E8;"/>
		</g>
	</g>
	<g>
		<g>
			<path d="M172,970.8c-6.9-9.9-12.7-20.5-17.1-31.8c-2-5.1-3.7-10.4-5.1-15.7c-0.7-2.8-1.4-5.6-2-8.5
				c-0.4-1.7-3-12.8,0.6-12.1c1.2,0.2,2.1-0.7,1.8-1.8c-2.5-13.8-4.1-27.7-4.6-41.7c-0.2-6.4-0.3-13,1.1-19.2c0.7-3,1.7-6.5,3.7-9
				c4.6-5.6,9.4-1,12.4,3.2c14.4,20.2,23.6,44.5,28,68.8c0.3,1.9,3.2,1.1,2.9-0.8c-2.8-15.1-7.4-29.7-13.7-43.6
				c-3.3-7.2-7-14.1-11.2-20.7c-2.8-4.4-6.4-11.3-12.1-12.5c-12.5-2.6-14.1,19.2-14.2,26.9c-0.2,16.6,1.8,33.3,4.8,49.6
				c0.6-0.6,1.2-1.2,1.8-1.8c-12-2.1-2.1,25.4-0.6,30.1c4.7,15.1,11.8,29.4,20.8,42.4C170.5,973.9,173.1,972.4,172,970.8L172,970.8z
				" style="fill:#E8E8E8;"/>
		</g>
	</g>
	<g>
		<g>
			<path d="M152.3,828.5c11.2,34.7,20.7,70,28.5,105.6c0.4,1.9,3.3,1.1,2.9-0.8c-7.8-35.6-17.3-70.9-28.5-105.6
				C154.6,825.9,151.7,826.7,152.3,828.5L152.3,828.5z" style="fill:#E8E8E8;"/>
		</g>
	</g>
	<g>
		<g>
			<path d="M145,874.9c11.9,5.1,21.6,13.8,27.8,25.1c0.9,1.7,3.5,0.2,2.6-1.5c-6.5-11.8-16.5-20.9-28.9-26.2
				C144.7,871.6,143.2,874.2,145,874.9L145,874.9z" style="fill:#E8E8E8;"/>
		</g>
	</g>
	<g>
		<g>
			<path d="M172.9,849.4c-2.6,9.9-4.2,19.9-4.8,30.1c-0.1,1.9,2.9,1.9,3,0c0.5-9.9,2.1-19.7,4.7-29.3
				C176.3,848.3,173.4,847.5,172.9,849.4L172.9,849.4z" style="fill:#E8E8E8;"/>
		</g>
	</g>
	<g>
		<g>
			<path d="M1383.1,974.4c-7.9-19.2-10.2-40.1-6.2-60.5c-0.5,0.4-1,0.7-1.4,1.1c2.3-0.4,4,0.6,5.2,3.1
				c0.5,1.4,3.1,1.4,2.9-0.4c-0.9-8.8-0.9-17.7,0.2-26.5c0.6-4.4,1.4-8.7,2.5-13c0.5-2,1.1-4,1.7-6c0.4-1.1,0.7-2.3,1.1-3.4
				c0.7-1.6,1.1-3.3,1.1-5.1c0.8,0.5,1.7,1,2.5,1.5c3.4-18.3,12.3-34.8,25.5-47.8c-0.7,0-1.4,0-2.1,0c4.6,4.9,4.8,11.9,5.5,18.2
				c0.7,6.6,1.2,13.2,1.5,19.8c0.7,12.9,0.7,25.9,0,38.8c-1.3,26.7-5.4,53.1-12.2,78.9c-0.5,1.9,2.4,2.7,2.9,0.8
				c7.1-27.3,11.3-55.3,12.4-83.5c0.6-14.2,0.3-28.4-0.7-42.5c-0.7-10.1,0.1-24.6-7.4-32.6c-0.6-0.6-1.6-0.6-2.1,0
				c-13.6,13.3-22.8,30.4-26.3,49.1c-0.3,1.4,1.4,2.6,2.5,1.5c0.2-0.2,0.3-0.3,0.5-0.5c0.4-0.4,0.6-0.9,0.4-1.5
				c-0.8-2.3-2.9-3-4.7-1.1c-1.3,1.3-1.8,3.6-2.4,5.3c-1.2,3.4-2.2,6.8-3.1,10.3c-3.2,12.9-4,26.2-2.6,39.4c1-0.1,2-0.3,2.9-0.4
				c-1.4-3.5-4.2-5.6-8.1-5.3c-0.6,0-1.3,0.4-1.4,1.1c-4,20.9-1.9,42.4,6.2,62.1C1381,976.9,1383.9,976.2,1383.1,974.4L1383.1,974.4
				z" style="fill:#E8E8E8;"/>
		</g>
	</g>
	<g>
		<g>
			<path d="M1427.7,893.7c2.6-17.8,9.7-34.8,20.9-49c2.7-3.4,5.5-6.5,8.6-9.5c2-1.9,6.5-7.3,9.6-2.8
				c1.2,1.7,1.1,4.5,1.1,6.5c-0.1,9.7-1.4,19.6-2.9,29.3c-5.7,37.5-19.1,73.6-39.2,105.8c-1,1.6,1.6,3.2,2.6,1.5
				c18.3-29.5,31.1-62.1,37.7-96.2c1.6-8.2,2.8-16.4,3.6-24.7c0.7-6.7,2.8-15.8,0.3-22.3c-5.3-14-21,7-24.8,11.9
				c-10.9,14.2-17.9,31-20.4,48.7C1424.6,894.8,1427.5,895.6,1427.7,893.7L1427.7,893.7z" style="fill:#E8E8E8;"/>
		</g>
	</g>
	<g>
		<g>
			<path d="M1426,886.2c-1.2,16.9-3.5,33.6-6.9,50.2c-0.4,1.9,2.5,2.7,2.9,0.8c3.5-16.8,5.8-33.8,7-51
				C1429.1,884.3,1426.1,884.3,1426,886.2L1426,886.2z" style="fill:#E8E8E8;"/>
		</g>
	</g>
	<g>
		<g>
			<path d="M1464.6,829.8c-17,47.7-33.4,95.5-49.3,143.6c-0.6,1.8,2.3,2.6,2.9,0.8c15.8-48.1,32.2-95.9,49.3-143.6
				C1468.1,828.8,1465.2,828,1464.6,829.8L1464.6,829.8z" style="fill:#E8E8E8;"/>
		</g>
	</g>
	<g>
		<g>
			<path d="M1415.6,818.6c-7.8,52-15.7,103.9-23.5,155.9c-0.3,1.9,2.6,2.7,2.9,0.8c7.8-52,15.7-103.9,23.5-155.9
				C1418.8,817.5,1415.9,816.6,1415.6,818.6L1415.6,818.6z" style="fill:#E8E8E8;"/>
		</g>
	</g>
	<g>
		<g>
			<path d="M1389.4,863.1c3.3,20.2,6.6,40.3,9.9,60.5c0.3,1.9,3.2,1.1,2.9-0.8c-3.3-20.2-6.6-40.3-9.9-60.5
				C1392,860.4,1389.1,861.2,1389.4,863.1L1389.4,863.1z" style="fill:#E8E8E8;"/>
		</g>
	</g>
	<g>
		<g>
			<path d="M1423.1,847.7c-6.7,11.4-12.4,23.3-17.1,35.7c-0.7,1.8,2.2,2.6,2.9,0.8c4.6-12.1,10.2-23.8,16.8-34.9
				C1426.7,847.5,1424.1,846,1423.1,847.7L1423.1,847.7z" style="fill:#E8E8E8;"/>
		</g>
	</g>
	<g>
		<g>
			<path d="M1435.7,859.5c0,17.2,0,34.5,0,51.7c0,1.9,3,1.9,3,0c0-17.2,0-34.5,0-51.7
				C1438.7,857.6,1435.7,857.6,1435.7,859.5L1435.7,859.5z" style="fill:#E8E8E8;"/>
		</g>
	</g>
	<g>
		<g>
			<path d="M499.3,1014.3c6.6-4.2,14.5-5.5,22-3.2c6.5,2,11.9,4.7,18.9,4.4c6.5-0.3,12.8-2,19.3-2.4
				c3.5-0.2,7-0.1,10.4,1.1c3.4,1.2,5.8,3,9.4,3.2c1.9,0.1,1.9-2.9,0-3c-4.1-0.2-7.6-3.1-11.6-3.9c-3.2-0.6-6.5-0.6-9.8-0.3
				c-7,0.7-13.9,2.7-20.9,2.3c-7.3-0.4-13.5-4.8-20.7-5.5c-6.6-0.6-13,1.2-18.5,4.7C496.2,1012.7,497.7,1015.3,499.3,1014.3
				L499.3,1014.3z" style="fill:#E8E8E8;"/>
		</g>
	</g>
	<g>
		<g>
			<path d="M753.5,1005.8c10-0.3,20-0.7,29.9-1c4.9-0.2,10-0.7,14.9-0.3c4.1,0.3,7.2,2.6,11,3.5
				c3.1,0.7,6.1,0.2,9.2-0.5c5.3-1.2,10.5-2.3,16-2.5c9.5-0.5,19,0.6,28.4,1.7c1.9,0.2,1.9-2.8,0-3c-9.4-1.1-18.9-2.2-28.4-1.7
				c-4.5,0.2-9,0.8-13.4,1.8c-5.3,1.2-9.4,2.1-14.5-0.2c-7.4-3.2-15.2-2.1-23-1.8c-10,0.3-20,0.7-29.9,1
				C751.6,1002.9,751.6,1005.9,753.5,1005.8L753.5,1005.8z" style="fill:#E8E8E8;"/>
		</g>
	</g>
	<g>
		<g>
			<path d="M1112.9,1106.5c10.1,1.5,20-0.4,29.9-2.3c6.1-1.2,12.2-2.4,18.5-2.6c6.2-0.2,12,1.2,18,2.6
				c5.2,1.2,10.2,1.7,15.5,1.1c5.3-0.7,10.4-2.1,15.7-2.7c11.5-1.4,22.3,4.2,33.8,3.5c1.9-0.1,1.9-3.1,0-3
				c-10.7,0.6-20.7-4.4-31.4-3.8c-5.1,0.3-10,1.6-15.1,2.5c-6.8,1.2-12.8,0.7-19.5-0.9c-10-2.5-19.3-2.7-29.5-0.9
				c-11.7,2-23.3,5.3-35.2,3.6C1111.8,1103.3,1111,1106.2,1112.9,1106.5L1112.9,1106.5z" style="fill:#E8E8E8;"/>
		</g>
	</g>
	<g>
		<g>
			<path d="M1390.1,1009.4c20-6.7,41.7-0.4,62.3-3.2c5.8-0.8,11.7-1.8,17.6-1.3c4.9,0.4,9.5,2.3,14.3,2.8
				c5,0.4,9.9-1,14.8-1.5c6.1-0.6,12.1-0.2,18.1,0.9c1.9,0.4,2.7-2.5,0.8-2.9c-5-0.9-10.1-1.4-15.2-1.3c-5.4,0.2-10.6,1.7-16,1.8
				c-5.1,0.1-9.9-2.1-15-2.7c-5.5-0.7-11,0-16.5,0.7c-11.7,1.6-22.9,1.5-34.6,0.9c-10.7-0.5-21.3-0.6-31.5,2.9
				C1387.5,1007.1,1388.2,1010,1390.1,1009.4L1390.1,1009.4z" style="fill:#E8E8E8;"/>
		</g>
	</g>
	<g>
		<g>
			<path d="M563,1086.7c82.5,0,165.1,0,247.6,0c1.9,0,1.9-3,0-3c-82.5,0-165.1,0-247.6,0
				C561.1,1083.7,561.1,1086.7,563,1086.7L563,1086.7z" style="fill:#161616;"/>
		</g>
	</g>
	<g>
		<g>
			<path d="M793.3,1103c42.4,0,84.7,0,127.1,0c1.9,0,1.9-3,0-3c-42.4,0-84.7,0-127.1,0
				C791.3,1100,791.3,1103,793.3,1103L793.3,1103z" style="fill:#161616;"/>
		</g>
	</g>
	<g>
		<g>
			<path d="M1115.8,1055.2c44.5,0,89.1,0,133.6,0c1.9,0,1.9-3,0-3c-44.5,0-89.1,0-133.6,0
				C1113.9,1052.2,1113.9,1055.2,1115.8,1055.2L1115.8,1055.2z" style="fill:#161616;"/>
		</g>
	</g>
	<g>
		<g>
			<path d="M1300.4,1059.6c26.4,0,52.9,0,79.3,0c1.9,0,1.9-3,0-3c-26.4,0-52.9,0-79.3,0
				C1298.5,1056.6,1298.5,1059.6,1300.4,1059.6L1300.4,1059.6z" style="fill:#161616;"/>
		</g>
	</g>
	<g>
		<g>
			<path d="M213.3,1029.2c47.1,0,94.1,0,141.2,0c1.9,0,1.9-3,0-3c-47.1,0-94.1,0-141.2,0
				C211.4,1026.2,211.4,1029.2,213.3,1029.2L213.3,1029.2z" style="fill:#161616;"/>
		</g>
	</g>
	<g>
		<g>
			<path d="M348,1018.3c26.1,0,52.1,0,78.2,0c1.9,0,1.9-3,0-3c-26.1,0-52.1,0-78.2,0
				C346.1,1015.3,346.1,1018.3,348,1018.3L348,1018.3z" style="fill:#161616;"/>
		</g>
	</g>
	<g>
		<g>
			<path d="M796.7,1042.7c34.2,0,68.3,0,102.5,0c1.9,0,1.9-3,0-3c-34.2,0-68.3,0-102.5,0
				C794.7,1039.7,794.7,1042.7,796.7,1042.7L796.7,1042.7z" style="fill:#161616;"/>
		</g>
	</g>
</g>
<g id="background">
	<g>
		<g>
			<path d="M1237.5,524.4c0.4-7.7,15,0,19.1-0.7c5.4-0.9,6.6-6.9,12.8-5.6c3.8,0.8,7.4,2.6,11.4,2.2
				c2.6-0.3,4.5-1.8,7-2.5c3.9-1.1,7.8,0.1,10.7,2.9c1.4,1.3,3.5-0.8,2.1-2.1c-4.4-4.2-9.9-5.1-15.5-3c-4.7,1.8-7.5,1.6-12.2,0.2
				c-2.3-0.7-4.7-1.4-7.1-1.1c-2.8,0.4-3.9,1.8-5.8,3.5c-5.7,4.9-9.8,0.4-15.8-0.5c-4.6-0.7-9.3,1.6-9.6,6.7
				C1234.4,526.4,1237.4,526.4,1237.5,524.4L1237.5,524.4z" style="fill:#1E1E1E;"/>
		</g>
	</g>
	<g>
		<g>
			<path d="M1254.6,509.2c0.8-6.6,12.4-1,15.8-0.7c4.6,0.4,5.7-2.2,9-4.6c6.1-4.5,10.5,1.2,16.6,0.9
				c1.7-0.1,2.6-1.1,4-1.9c3.9-2.2,7.7-2.7,11.2,0.6c1.4,1.3,3.5-0.8,2.1-2.1c-4.1-3.8-9-4.1-13.9-1.9c-2.2,1-0.9,2.1-4.7,2.1
				c-1.9,0-4.3-1.5-6.2-2c-2.7-0.7-5.5-1.1-8.2,0c-4.4,1.8-4.6,6.2-10.8,5.7c-3.1-0.2-5.8-2.1-9-2.3c-4.3-0.3-8.5,1.5-9.1,6.1
				C1251.3,511.1,1254.3,511.1,1254.6,509.2L1254.6,509.2z" style="fill:#1E1E1E;"/>
		</g>
	</g>
	<g>
		<g>
			<path d="M305.8,870.9c4.1-3,7.6-4.4,12.4-2.1c1.9,0.9,3.7,1.9,5.8,2.3c4.4,0.7,8.4-1.5,12.3-3.2
				c3.6-1.6,6.6-2.5,10.4-0.5c2.1,1.1,3.8,2.6,6.2,3c4.8,0.9,11.9-3.7,15.7,0c1.4,1.3,3.5-0.8,2.1-2.1c-3.7-3.6-8.2-1.9-12.8-1.1
				c-3.1,0.5-5.1,0.4-7.9-1.2c-1.3-0.8-2.5-1.8-4-2.3c-2-0.7-4-0.8-6.1-0.4c-2.7,0.6-5.2,2-7.8,3.1c-4.7,2-7.8,1.9-12.6-0.2
				c-6.1-2.8-10-1.9-15.5,2.1C302.8,869.4,304.3,872,305.8,870.9L305.8,870.9z" style="fill:#1E1E1E;"/>
		</g>
	</g>
	<g>
		<g>
			<path d="M334.7,855.4c6.8-7.6,18.4,1.2,26.8-0.6c3.1-0.7,5.1-1.7,8.3-0.6c1.9,0.7,3.5,2,5.4,2.7
				c3.7,1.3,7.2,0.7,10.6-0.9c1.7-0.8,0.2-3.4-1.5-2.6c-7,3.4-10.1-1.9-16.2-2.9c-1.9-0.3-3.4,0.2-5.2,0.8c-3.4,1-6,1.1-9.6,0.3
				c-7-1.5-15.2-4.5-20.9,1.8C331.3,854.7,333.4,856.8,334.7,855.4L334.7,855.4z" style="fill:#1E1E1E;"/>
		</g>
	</g>
	<g>
		<g>
			<path d="M550.1,444.8c-7.8-5.9-2.6-19.1,7.4-16.9c4.1,0.9,7.6,4.2,7.6,8.6c0,5.2-4.4,9.8-9.5,10.1
				c-1.9,0.1-1.9,3.1,0,3c6.4-0.3,11.8-5.4,12.5-11.8c0.6-6.2-3.9-11.4-9.8-12.7c-13.5-3.1-20,14.6-9.7,22.4
				C550.1,448.6,551.6,446,550.1,444.8L550.1,444.8z" style="fill:#1E1E1E;"/>
		</g>
	</g>
	<g>
		<g>
			<path d="M247.3,765.1c-5-5.5-0.3-15.3,7.4-13.2c9.3,2.5,6.9,15.6-2.4,15.5c-1.9,0-1.9,3,0,3c5.6,0,10.7-4.2,11.5-9.8
				c0.8-5.2-2.7-9.7-7.5-11.4c-10.9-3.8-18.5,9.9-11.1,18C246.5,768.6,248.6,766.5,247.3,765.1L247.3,765.1z" style="fill:#8E8E8E;"/>
		</g>
	</g>
	<g>
		<g>
			<path d="M763,733.8c-3.7,2.7-6.5,6.3-7.7,10.7c-1.4,5.2,2.2,12.5-1.3,16.4c-2.2,2.5-6,4.2-7,7.6
				c-0.4,1.2-0.3,2.3,0.1,3.5c0.5,1.7,1.2,2,1.2,3.8c0,3-2.6,4.3-5.1,5.6c-1.7,0.9-0.2,3.5,1.5,2.6c3.2-1.7,7.3-4.5,7-8.6
				c-0.2-2.6-2.7-4.2-1.3-7c0.9-1.7,3.2-3,4.5-4.3c2.5-2.3,4.2-4.7,3.8-8.2c-0.5-3.8-1.6-6.7-0.6-10.6c1-3.7,3.2-6.7,6.3-8.9
				C766,735.3,764.5,732.7,763,733.8L763,733.8z" style="fill:#8E8E8E;"/>
		</g>
	</g>
	<g>
		<g>
			<path d="M777.7,743.8c-8.5-0.8-9.5,9.7-9.1,15.8c0.2,3.4,0.4,6.8-1.7,9.6c-1.1,1.4-2.7,2.5-3.4,4.2
				c-0.6,1.5-0.2,2.7,0.1,4.3c0.9,4.9-1.8,8.1-5.1,11.3c-1.4,1.4,0.7,3.5,2.1,2.1c2.6-2.6,5.6-5.6,6.3-9.4c0.3-1.8-0.4-3.2-0.4-4.9
				c0-3.1,1.9-4.2,3.3-6.4c2.2-3.2,2.1-7.1,1.8-10.8c-0.3-4.3-0.6-13.4,6.1-12.8C779.7,747,779.6,744,777.7,743.8L777.7,743.8z" style="fill:#8E8E8E;"/>
		</g>
	</g>
	<g>
		<g>
			<path d="M786.8,374c0.4-6.9,12-4.3,16.3-6.6c3.1-1.7,4.9-4.8,6.6-7.7c1-1.7,1.9-3.6,3.2-5.1c2.6-3,5.6-2.6,9.2-2.9
				c4.7-0.4,8.5-2.7,11.4-6.4c1.2-1.5-0.9-3.6-2.1-2.1c-2.8,3.6-6.3,5.3-10.8,5.6c-2.2,0.1-4.3,0-6.4,1c-3.8,1.9-5.6,6-7.6,9.5
				c-1.6,2.7-3.1,4.9-6.1,6c-2.9,1.1-6.2,0.5-9.2,1.2c-4,0.9-7.1,3.4-7.4,7.6C783.7,375.9,786.7,375.9,786.8,374L786.8,374z" style="fill:#8E8E8E;"/>
		</g>
	</g>
	<g>
		<g>
			<path d="M795.6,386.5c3-4.9,9.1-6.1,13.9-8.5c4.3-2.1,6.5-4.8,7.8-9.4c1.9-7.1,7.4-6.2,13.5-7.1
				c3.7-0.6,6.7-1.8,8.2-5.5c0.7-1.8-2.2-2.6-2.9-0.8c-1.9,4.5-9.4,3.4-13.4,4.3c-4.1,0.8-6.9,2.7-8.1,6.8c-1.1,3.7-1.5,6-4.9,8.1
				c-2.1,1.3-4.5,2.2-6.8,3.2c-4,1.7-7.7,3.6-10,7.4C792,386.6,794.6,388.1,795.6,386.5L795.6,386.5z" style="fill:#8E8E8E;"/>
		</g>
	</g>
	<g>
		<g>
			<path d="M1246.3,845.3c-2.4-7.4,5.2-15,12.4-10.5c7.9,4.9,3.5,16.1-5.3,15.9c-1.9-0.1-1.9,2.9,0,3
				c11.2,0.4,17.1-13.9,7.7-20.8c-9.2-6.8-21,2.8-17.7,13.3C1244,848,1246.9,847.2,1246.3,845.3L1246.3,845.3z" style="fill:#8E8E8E;"/>
		</g>
	</g>
	<g>
		<g>
			<path d="M775.2,944c-2.8-5.2,0.2-12.8,6.9-11.8c2.7,0.4,5.3,2.4,5.3,5.4c0,2.9-2.3,5.8-5.3,5.9c-1.9,0.1-1.9,3.1,0,3
				c9.4-0.4,11.1-13.7,2.3-16.8c-9.7-3.3-16.1,7.7-11.8,15.8C773.6,947.2,776.2,945.7,775.2,944L775.2,944z" style="fill:#8E8E8E;"/>
		</g>
	</g>
	<g>
		<g>
			<path d="M1200.2,356.9c-2.9-3.2,1.3-7.7,4.9-5.6c4.5,2.7,1.8,8.2-2.4,9.3c-1.9,0.5-1.1,3.4,0.8,2.9
				c7.3-1.8,9.8-12.1,2-15.3c-6.6-2.7-12.2,5.6-7.5,10.8C1199.4,360.5,1201.5,358.4,1200.2,356.9L1200.2,356.9z" style="fill:#8E8E8E;"/>
		</g>
	</g>
	<g>
		<g>
			<path d="M171.9,459c-5.8-3-2.3-12.2,4.2-10.3c7.6,2.2,5,12-1.7,13.4c-1.9,0.4-1.1,3.3,0.8,2.9
				c10-2.2,11.9-17,0.9-19.4c-9.5-2.1-14.3,11.5-5.8,15.9C172.1,462.5,173.6,459.9,171.9,459L171.9,459z" style="fill:#1E1E1E;"/>
		</g>
	</g>
</g>
<g id="number_board">
	<path d="M149.7,528.1c-0.2,40.4-0.3,80.9-0.5,121.3c183.6-0.7,367.2-1.4,550.8-2c-0.5-39.8-1.1-79.6-1.6-119.4
		C515.5,528,332.6,528.1,149.7,528.1z" style="fill:#7F7F7F;"/>
	<g>
		<g>
			<path d="M145.6,527.8c0,39.2,0,78.3,0,117.5c0,3.9,6,3.9,6,0c0-39.2,0-78.3,0-117.5
				C151.6,523.9,145.6,523.9,145.6,527.8L145.6,527.8z" style="fill:#161616;"/>
		</g>
	</g>
	<g>
		<g>
			<path d="M151.4,529.4c71.3,0,142.6,0,213.9,0c71.6,0,143.3,0,214.9,0c40.3,0,80.6,0,121,0c3.9,0,3.9-6,0-6
				c-71.3,0-142.6,0-213.9,0c-71.6,0-143.3,0-214.9,0c-40.3,0-80.6,0-121,0C147.5,523.4,147.5,529.4,151.4,529.4L151.4,529.4z" style="fill:#161616;"/>
		</g>
	</g>
	<g>
		<g>
			<path d="M697.9,526.3c0.5,40.8,1,81.7,1.5,122.5c0,3.9,6,3.9,6,0c-0.5-40.8-1-81.7-1.5-122.5
				C703.9,522.5,697.9,522.5,697.9,526.3L697.9,526.3z" style="fill:#161616;"/>
		</g>
	</g>
	<g>
		<g>
			<path d="M148.6,651.1c72.1,0,144.1,0,216.2,0s144.1,0,216.2,0c40.5,0,81,0,121.6,0c3.9,0,3.9-6,0-6
				c-72.1,0-144.1,0-216.2,0s-144.1,0-216.2,0c-40.5,0-81,0-121.6,0C144.7,645.1,144.7,651.1,148.6,651.1L148.6,651.1z" style="fill:#161616;"/>
		</g>
	</g>
	<g>
		<g>
			<path d="M195.3,578.7c4.1-10,6.3-20.5,6.9-31.3c-1,0-2,0-3,0c-0.4,28.6-0.8,57.2-1.1,85.7c0,1.9,3,1.9,3,0
				c0.4-28.6,0.8-57.2,1.1-85.7c0-1.9-2.9-1.9-3,0c-0.5,10.5-2.8,20.7-6.8,30.5C191.7,579.7,194.6,580.4,195.3,578.7L195.3,578.7z" style="fill:#FFFFFF;"/>
		</g>
	</g>
	<g>
		<g>
			<path d="M240,577c-2.6-4.1-3.6-8.9-2.3-13.7c1.5-5.5,8.6-12.4,13.3-5c4,6.4,0.1,17.6-1.9,24.2
				c-4.5,15.2-12.8,29-24,40.3c-0.8,0.9-0.4,2.1,0.7,2.5c12.8,4.8,27.7,9.5,39.9,0.7c1.6-1.1,0.1-3.7-1.5-2.6
				c-11.6,8.3-25.6,3.5-37.6-1c0.2,0.8,0.4,1.7,0.7,2.5c8.1-8.3,14.9-17.8,19.7-28.3c4.5-9.8,8.9-21.8,8.5-32.8
				c-0.3-7.7-7.1-15.3-14.9-10c-7.9,5.4-7.8,17.1-3.2,24.6C238.4,580.1,241,578.6,240,577L240,577z" style="fill:#FFFFFF;"/>
		</g>
	</g>
	<g>
		<g>
			<path d="M287.1,556.8c10.3-0.5,20.4,0,30.6,1.6c-0.3-0.7-0.6-1.5-0.9-2.2c-5.7,7.4-12.4,13.6-20.2,18.7
				c-1.6,1.1-0.2,3.4,1.5,2.6c7.5-3.7,15.6,1.1,19.1,8.1c3,6.1,3.2,13.5,1.9,20c-1.3,6.4-4.6,12.7-10.4,16.2
				c-6.2,3.7-14.4,3.7-19.9-1.2c-1.4-1.3-3.6,0.8-2.1,2.1c5.8,5.2,14,6,21,2.9c8.3-3.6,13-12.1,14.5-20.7c1.4-8.3,0.5-18-4.9-24.8
				c-5-6.2-13.4-8.7-20.7-5.2c0.5,0.9,1,1.7,1.5,2.6c8.2-5.3,15.3-11.9,21.3-19.7c0.6-0.7,0-2.1-0.9-2.2
				c-10.4-1.6-20.9-2.2-31.4-1.7C285.1,553.9,285.1,556.9,287.1,556.8L287.1,556.8z" style="fill:#FFFFFF;"/>
		</g>
	</g>
	<g>
		<g>
			<path d="M368.2,552.4c-1,8.1-2.9,15.6-5.2,23.4c-1.2,4.2-0.6,5.7,3.9,6.1c7.9,0.7,15.9,0.9,23.9,1.4
				c2.4,0.1,11.3,2.5,11.9-1.6c0.3-1.9-2.6-2.7-2.9-0.8c0,0.2-28.3-1.6-30.9-1.9c-0.8,0-1.6-0.1-2.3-0.4c-1.3,0.2-1.7-0.2-1-1.2
				c-0.1-0.9,0.9-2.7,1.2-3.6c0.7-2.4,1.4-4.8,2-7.3c1.1-4.7,1.9-9.5,2.5-14.3C371.4,550.5,368.4,550.5,368.2,552.4L368.2,552.4z" style="fill:#FFFFFF;"/>
		</g>
	</g>
	<g>
		<g>
			<path d="M386.8,557.9c0.7,21.2,1.7,42.5,2.9,63.7c0.1,1.9,3.1,1.9,3,0c-1.2-21.2-2.1-42.4-2.9-63.7
				C389.7,556,386.7,556,386.8,557.9L386.8,557.9z" style="fill:#FFFFFF;"/>
		</g>
	</g>
	<g>
		<g>
			<path d="M413.6,553.1c5.5-0.8,10.8,0,16.3,0.5c2.3,0.2,4.7,0.4,7.1,0.3c0.8,0,5.4-1,6-0.7c-0.2-0.7-0.4-1.4-0.5-2.1
				c-0.1,0.1-0.1,0.2-0.2,0.3c0.7-0.2,1.4-0.4,2.1-0.5c-0.1,0-0.2-0.1-0.2-0.1c-1.7-0.8-3.3,1.7-1.5,2.6c0.1,0,0.2,0.1,0.2,0.1
				c0.7,0.3,1.6,0.2,2.1-0.5c0.1-0.1,0.1-0.2,0.2-0.3c0.4-0.7,0.2-1.6-0.5-2.1c-1-0.6-1.7-0.3-2.8-0.2c-3.7,0.3-7.1,0.6-10.9,0.3
				c-6.1-0.5-11.9-1.4-18-0.5C410.9,550.5,411.7,553.4,413.6,553.1L413.6,553.1z" style="fill:#FFFFFF;"/>
		</g>
	</g>
	<g>
		<g>
			<path d="M411.3,551.8c3.1,7.5,5.1,15.2,6.1,23.2c0.1,0.9,0.9,1.8,1.9,1.4c6.2-2.1,12.3-2,17.2,2.8
				c4.6,4.6,5.9,11.2,4.9,17.5c-0.8,5.6-3.1,12.9-8.8,15.2c-6.6,2.7-13.5-0.9-19.3-4c-1.7-0.9-3.2,1.7-1.5,2.6
				c6.6,3.5,14.5,7.4,22,4.2c6.7-2.8,9.6-11,10.6-17.6c1.1-7.2-0.6-14.7-5.8-20c-5.6-5.6-12.8-6.1-20.1-3.6c0.6,0.5,1.3,1,1.9,1.4
				c-1-8.3-3.1-16.3-6.2-24C413.4,549.2,410.5,550,411.3,551.8L411.3,551.8z" style="fill:#FFFFFF;"/>
		</g>
	</g>
	<g>
		<g>
			<path d="M476,550.1c-10.7,7.3-18.1,18.7-20.4,31.4c-1.7,9.4-1.8,26.4,8.8,30.9c10.6,4.5,19-9.9,15.1-18.9
				c-3.7-8.5-21.1-9.6-23.8,0.3c-0.5,1.9,2.4,2.7,2.9,0.8c1.4-5,8.9-5.4,13-4.2c6.2,1.8,7.1,9.1,4.4,14.2
				c-3.3,6.2-10.5,7.4-14.6,1.3c-2.4-3.5-3.2-7.8-3.6-11.9c-1.4-16.1,6.3-32.2,19.6-41.4C479.1,551.6,477.6,549,476,550.1L476,550.1
				z" style="fill:#FFFFFF;"/>
		</g>
	</g>
	<g>
		<g>
			<path d="M534.8,561.6c-0.3-0.7-2.1-4.2-1.7-5.5c-0.4-1.3,0.3-1.6,1.9-1c0.7,0,1.3,0,2,0c3.3-0.1,6.5-0.1,9.8-0.2
				c6.5-0.1,13-0.3,19.6-0.4c-0.4-0.8-0.9-1.5-1.3-2.3c-11,22.3-18.2,46.2-21.2,71c1-0.1,2-0.3,2.9-0.4c-0.1-0.7-0.2-1.4-0.3-2.1
				c-0.3-1.9-3.2-1.1-2.9,0.8c0.1,0.7,0.2,1.4,0.3,2.1c0.3,1.8,2.8,1.1,2.9-0.4c3-24.2,10-47.6,20.8-69.5c0.5-1-0.1-2.3-1.3-2.3
				c-10.7,0.2-21.5,0.2-32.3,0.7c-6.7,0.3-3.8,6.6-1.9,11C532.9,564.9,535.5,563.3,534.8,561.6L534.8,561.6z" style="fill:#FFFFFF;"/>
		</g>
	</g>
	<g>
		<g>
			<path d="M538.5,592.1c9,2.1,18,1.7,26.8-1.1c1.8-0.6,1-3.5-0.8-2.9c-8.3,2.7-16.7,3-25.2,1.1
				C537.4,588.7,536.6,591.6,538.5,592.1L538.5,592.1z" style="fill:#FFFFFF;"/>
		</g>
	</g>
	<g>
		<g>
			<path d="M613.2,555.7c-4.9,10.9-9.7,21.8-14.6,32.7c-2.3,5.2-4.6,10.3-6.9,15.5c-2.2,4.9-3.9,11.2-7,15.6
				c-1.1,1.6,1.5,3.1,2.6,1.5c2.8-4.1,4.5-10.1,6.6-14.7c2.4-5.5,4.9-10.9,7.3-16.4c4.9-10.9,9.7-21.8,14.6-32.7
				C616.6,555.5,614,554,613.2,555.7L613.2,555.7z" style="fill:#FFFFFF;"/>
		</g>
	</g>
	<g>
		<g>
			<path d="M614.3,555.1c-6.1-6.1-15.8-1.4-21.7,2.7c-7,4.8-12.4,13.3-9,22c3.8,9.9,14.8,12.6,21.9,19.3
				c5.7,5.3,8.3,13.8,1.2,19.2c-5.9,4.5-13.7,3.5-20.6,2.2c-1.9-0.4-2.7,2.5-0.8,2.9c8.5,1.6,18.2,2.5,24.9-4.2
				c5.8-5.8,4.7-14.1-0.3-20c-6.7-8.1-20.7-10.6-23.8-21.6c-2.1-7.3,3.1-13.9,8.8-17.7c4.5-3,12.7-7.5,17.5-2.8
				C613.5,558.6,615.6,556.5,614.3,555.1L614.3,555.1z" style="fill:#FFFFFF;"/>
		</g>
	</g>
	<g>
		<g>
			<path d="M654.7,558.4c5.5-5.4-1.1-12-7.2-12c-7.4,0.1-18.3,5-20.2,12.8c-1.7,7.1,4.9,13.7,11.9,13.9
				c8.6,0.2,14.1-8,15-15.7c-1,0.1-2,0.3-2.9,0.4c2.6,13.4,3.3,27.2,1.8,40.8c-0.7,6-1.8,14.4-8.7,16.5c-8,2.4-14.5-4.6-18.3-10.6
				c-1-1.6-3.6-0.1-2.6,1.5c3.8,5.9,8.9,11.7,16.3,12.4c6.5,0.6,11.5-2.9,13.9-8.8c3-7.3,3-16.4,3-24.1c0.1-9.6-0.9-19.1-2.7-28.5
				c-0.3-1.8-2.8-1.1-2.9,0.4c-0.6,5.3-3.7,10.7-9.1,12.3c-5,1.5-11.1-1.8-11.9-7.2c-0.8-5.2,4-8.6,8.2-10.6
				c2.1-0.9,4.3-1.8,6.5-2.2c1.7-0.4,3.4-0.5,5.1-0.1c3.3,1.1,4.1,3.3,2.5,6.6C651.2,557.6,653.3,559.8,654.7,558.4L654.7,558.4z" style="fill:#FFFFFF;"/>
		</g>
	</g>
	<path d="M841,541.1c-3.2,2.6-7.3,6.5-11.1,11.9c-3.3,4.7-5.4,9.2-6.7,12.7c3,1.4,9.4,4.9,10.7,11.1
		c1.5,6.8-4.1,13-11.5,21C817.5,603,810,610,799,616.4c-1.9,0-5.7-0.2-9.9-2.4c-5-2.7-7.4-6.7-8.3-8.3c-4.2,1.2-9.6,3.2-15.5,6.7
		c-5.5,3.3-9.7,6.9-12.7,9.9c1.4,3.2,5.6,12,15.1,15.8c3.7,1.5,8.4,2.3,17.1,0.8c8.8-1.5,20.7-5.1,34.8-14.7
		c20.1-13.7,30.1-29.7,32.9-34.5c7-11.9,12-20.4,9.1-30.1C857.9,547.5,844.1,542.2,841,541.1z" style="fill:#161616;"/>
	<g>
		<g>
			<path d="M781,584.5c5.4-7.6,12.8-13.3,21.4-16.7c1.8-0.7,1-3.6-0.8-2.9c-9.4,3.7-17.3,9.8-23.2,18.1
				C777.2,584.6,779.8,586.1,781,584.5L781,584.5z" style="fill:#161616;"/>
		</g>
	</g>
	<g>
		<g>
			<path d="M764.5,586.3c8.1-17.7,23.8-30.7,42.8-35.4c1.9-0.5,1.1-3.4-0.8-2.9c-19.6,4.8-36.1,18.4-44.6,36.7
				C761.1,586.6,763.6,588.1,764.5,586.3L764.5,586.3z" style="fill:#161616;"/>
		</g>
	</g>
	<g>
		<g>
			<path d="M750.6,589.5c2.3-13.8,9.8-25.9,20.5-35c10.2-8.7,25.9-18.1,39.8-16.3c1.9,0.2,1.9-2.8,0-3
				c-14.2-1.8-30,7.5-40.7,16.1c-11.6,9.4-20,22.5-22.5,37.3C747.4,590.6,750.3,591.4,750.6,589.5L750.6,589.5z" style="fill:#161616;"/>
		</g>
	</g>
</g>
<g id="boy">
	<g id="leg_right">
		<path d="M921.3,1035.8c0.4,13,0.7,26,1.1,39c-41.3,12.2-61.6,20.2-60.9,24c0.9,4.8,34,3.2,99.3-4.8
			c-1.4-22.2-2.8-44.5-4.3-66.7C944.8,1030.1,933.1,1032.9,921.3,1035.8z" style="fill:#161616;stroke:#161616;stroke-width:2;stroke-miterlimit:10;"/>
		<path d="M1052,779.5c-6,1.8-4.7,2.5-37.1,27.4c-34.3,26.3-51.4,39.5-63.3,46.2c-6.9,3.9-12.5,6.7-19.4,13.1
			c-11.4,10.7-17.2,22.9-21.7,34.8c-14,37.1-16.1,72.6-16.5,88.4c-0.4,14.6-0.1,35.2,3.4,59.9c10.8,2.6,19.8,3.3,26.2,3.4
			c11.1,0.2,26.9,0.4,43.3-8c4.8-2.5,8.5-5.1,10.8-6.8c-2.9-17.1-5.1-38.6-4-63.3c0.9-19.9,3.6-37.4,6.8-51.9
			c5.3-4,13.4-9.7,23.9-15.4c12.1-6.5,24.2-11.3,57.6-21.1c40-11.7,41.4-10.4,47.3-15.4c15.3-12.8,26.3-38.6,17.7-61
			C1115.8,780.3,1076.4,772.4,1052,779.5z" style="fill:#FFFFFF;"/>
		<g>
			<g>
				<path d="M1036.6,789.6c-18.5,12.9-36.9,25.9-55.4,38.8c-16.4,11.5-34,22.3-49,35.8c-14.4,12.9-22.4,29-27.6,47.4
					c-5.7,20.4-9.4,41.5-11.3,62.6c-2.2,24.3-1.7,48.7,1.1,72.9c0.2,1.9,3.2,1.9,3,0c-4.9-41.4-2.5-83.5,7.3-123.9
					c4.7-19.5,10.9-38.3,25.4-52.8c14-14,31.6-24.6,47.7-35.9c20.1-14.1,40.2-28.2,60.3-42.3
					C1039.7,791.1,1038.2,788.5,1036.6,789.6L1036.6,789.6z" style="fill:#161616;"/>
			</g>
		</g>
		<g>
			<g>
				<path d="M1093.3,874.4c-22,6.3-43.7,13.3-65.1,21.3c-9.4,3.5-19,7-28.2,11.1c-7.6,3.4-14.7,7.7-19.1,15
					c-1,1.7,1.6,3.2,2.6,1.5c4.8-8.1,13.4-12.1,21.7-15.5c9.6-3.9,19.3-7.6,29.1-11.2c19.7-7.2,39.6-13.6,59.7-19.3
					C1095.9,876.8,1095.1,873.9,1093.3,874.4L1093.3,874.4z" style="fill:#161616;"/>
			</g>
		</g>
		<g>
			<g>
				<path d="M982.2,906.8c-10.4,42.5-12.3,86.7-5.6,129.9c0.3,1.9,3.2,1.1,2.9-0.8c-6.6-42.7-4.7-86.4,5.6-128.3
					C985.5,905.7,982.6,904.9,982.2,906.8L982.2,906.8z" style="fill:#161616;"/>
			</g>
		</g>
		<g>
			<g>
				<path d="M895.7,1047c0.5,5.6,9.2,4.7,13,5.1c9.2,0.9,18.4,1.6,27.7,1.1c15-0.8,29.7-5,41.5-14.6
					c1.5-1.2-0.6-3.3-2.1-2.1c-10.1,8.2-22.6,12.2-35.4,13.4c-6.6,0.6-13.2,0.6-19.8,0.2c-2.4-0.1-21.7-0.6-21.9-3.1
					C898.5,1045.1,895.5,1045.1,895.7,1047L895.7,1047z" style="fill:#161616;"/>
			</g>
		</g>
		<path d="M1092.4,840.7c-13.8-7-29.6,10.9-68.6,28.7c-31.9,14.6-39.8,11-52.3,18.6c-22,13.3-41.5,51.2-27.5,161.3
			c3.1,0,6.7-0.3,10.7-1.1c10.5-2.2,18-7.2,22.5-10.7c-3.5-21.9-5.6-49.5-2.2-81c1.4-13.3,3.6-25.5,6.2-36.5
			c9.5-5.5,24.3-13.4,43.3-20.8c46.1-18.1,74.7-17,79.3-33.2C1106.2,856.9,1100.6,844.8,1092.4,840.7z" style="opacity:0.11;fill:#666666;"/>
		<path d="M1082.3,877.8c-0.5-2.7-32.9-1.3-66.9,10.1c-21.7,7.2-33.5,11.2-43.8,22.5c-16.4,17.8-17.3,40.7-18.6,72.5
			c-0.6,15.1-0.2,36.9,5.1,63c6.6-2.1,13.1-4.1,19.7-6.2c-2.5-18.6-4.1-41-2.8-66.3c1-18.9,3.3-35.8,6.2-50.6
			c2.9-3.1,7.3-7.5,13.5-11.8c13.5-9.5,25.4-11.9,39.4-15.7C1052.2,890.2,1082.8,880.4,1082.3,877.8z" style="opacity:0.12;fill:#666666;"/>
	</g>
	<g id="leg_left">
		<path d="M1250,967.7c21.8-7.1,40.3-11.1,53.8-13.5c19.3-3.4,23.8-2.7,27.4,0c6.2,4.6,4.9,11.4,7.2,53.8
			c0.8,13.9,1.2,17.4-1.6,21.7c-9.5,15.1-41.1,14.4-43.5,7.8c-0.9-2.6,2.1-7.4,17.1-17.1c-0.5-9.5-1-19-1.6-28.5
			c-17.1,4.1-34.2,8.3-51.2,12.4C1255.2,992.2,1252.6,980,1250,967.7z" style="fill:#161616;stroke:#161616;stroke-width:2;stroke-miterlimit:10;"/>
		<path d="M1075.3,795.5c-6.6,15.5-1.9,32.1,0.3,39.9c2.5,9,4.9,10.2,8.9,22.3c4.3,13,5.6,22.4,7.4,33.7
			c2.6,16.5,5.6,35.3,10.3,54.1c5.8,23.2,9,35.1,18.6,48c4.2,5.7,14.1,18.5,31.5,25.3c3.3,1.3,7.7,2.7,18.6,4.1
			c12,1.6,30.6,4,55.2,1c21-2.5,38.5-8.1,51.6-13.4c2.6-9.6,2.5-17.6,2.1-22.7c-0.6-6.4-1.6-18.3-10.3-28.4
			c-2.5-2.9-6.2-7.1-12.4-9.3c-6.8-2.3-12.9-0.8-23.7,2.1c-12.5,3.3-17.1,6.9-25.3,5.2c-3.5-0.7-6.1-2.1-7.7-3.1
			c-2.4-3.7-5.7-9.3-8.8-16.5c-8.1-18.8-8.7-33.9-9.8-50.5c-2.5-37.4-3.8-56.1-9.8-76.8c-6.3-21.7-8.1-32.6-17.5-39.2
			c-9.7-6.8-20.7-6.3-27.5-6C1110.3,766,1084.5,774,1075.3,795.5z" style="fill:#FFFFFF;"/>
		<g>
			<g>
				<path d="M1159.3,778.2c16.4,34.4,17.7,73,21.3,110.2c2.6,26.9,4.9,63.8,32.2,78c1.7,0.9,3.2-1.7,1.5-2.6
					c-14-7.3-21-21.7-24.9-36.4c-4.2-16.1-5.3-33-6.7-49.6c-3-34.4-5.7-69.5-20.7-101.2C1161.1,774.9,1158.5,776.4,1159.3,778.2
					L1159.3,778.2z" style="fill:#161616;"/>
			</g>
		</g>
		<g>
			<g>
				<path d="M1078,846.7c17.6,39.9,13.2,85.4,30.3,125.4c6.8,16,17,31,31.5,40.9c17.6,11.9,40.5,14.3,61.2,14
					c26.1-0.4,51.8-6.4,76-15.9c1.8-0.7,1-3.6-0.8-2.9c-21.1,8.3-43.3,14-66,15.4c-21.6,1.4-46.2,0.3-65.3-10.9
					c-33.5-19.7-42.4-62-47.8-97.3c-3.6-23.9-6.8-48-16.7-70.3C1079.8,843.5,1077.2,845,1078,846.7L1078,846.7z" style="fill:#161616;"/>
			</g>
		</g>
		<g>
			<g>
				<path d="M1198.5,954.8c18.1,10.6,38.8-9.8,57.9-3.6c10.6,3.5,15.8,14.9,18.7,24.9c3.2,10.8,3.6,22.1,1.4,33.1
					c-0.4,1.9,2.5,2.7,2.9,0.8c2-10.4,1.9-21.1-0.5-31.4c-2.3-9.4-6.3-20.1-14.2-26.3c-7.3-5.8-17-5.9-25.8-4.2
					c-11.8,2.3-27.3,11-38.9,4.2C1198.3,951.3,1196.8,953.8,1198.5,954.8L1198.5,954.8z" style="fill:#161616;"/>
			</g>
		</g>
		<path d="M1144.5,776.9c-16.8,16.5,17.1,52.8,17.7,113.8c0.5,47.7-10.8,67.5,4.4,83.5c21.8,22.9,71.1,9.7,76.5,8.2
			c8.6-2.4,27-5.9,28.5-15.2c0.9-6.1-5.5-13-12-16.4c-19.8-10.5-38.3,12.7-55.7,5.1c-13.1-5.8-16-25-21.5-60.7
			c-4.5-29.3-1.7-35.5-7-67.7c-3.9-23.7-8.9-53.3-20.9-55C1149.7,771.7,1145.3,776,1144.5,776.9z" style="opacity:0.11;fill:#666666;"/>
		<path d="M1171.7,816.1c-1.6,0.1-1.7,19.3-1.9,43c-0.5,67.3,3.3,81.6,12,94.2c3.6,5.2,10.4,14.8,22.8,20.2
			c27.4,12.1,63.8-3.8,63.9-13.9c0-5.1-9.3-8.9-10.8-9.5c-9.5-3.8-16.8-0.1-36.1,3.2c-8,1.4-14.8,2.1-19.6,2.5
			c-3.6-4.5-8.6-11.5-12.6-20.9c-7.7-17.7-7.1-32.1-7.6-47.4C1180.7,849.7,1173.7,816,1171.7,816.1z" style="opacity:0.17;fill:#666666;"/>
	</g>
	<g id="hand_reight">
		<path d="M800.1,649.4c0.2-2.3,5.5-3.5,8.7-4.2c13.1-2.9,24.4-0.7,27.4,0.5c5.6,2.2,11.2,4.4,16.9,6.6
			c0.3-1.7,1.2-5.3,4.1-8c5.2-4.7,12.6-2.9,14.6-2.3c2.6,0.7,6.7,2.3,13.7,9.9c7.2,7.8,8.2,11.8,12.3,16.9
			c9.5,11.8,23.8,14.9,31,16.4c6.3,1.4,19,4.1,33.3-1.9c12.6-5.3,19.7-14.6,22.8-18.8c3-4.1,4-6.5,10-20.2
			c12.2-27.9,16.1-36.5,24.6-45.1c4.6-4.7,10.2-10.2,16-8.9c7.1,1.6,10.1,12.7,11.4,17.4c1.4,5.2,3.2,15.1-0.9,32.4
			c-1.4,6-6.2,23.7-20.1,43.2c-5.8,8.2-13.9,19.3-28.3,28.7c-6.3,4.1-16.6,10.7-31.5,12.7c-13.2,1.8-23.3-0.9-31.9-3.3
			c-9.5-2.6-25.3-8.4-42-22.1c-10.7,0.5-18.9,1.2-24.6,1.9c-9.7,1.1-13.8,2-18.2-0.5c-1.5-0.9-3.7-2.5-6.8-2.3
			c-2.9,0.2-3.9,1.8-6.4,2.3c-2.8,0.6-7.4,0.1-10-3.3c-2.1-2.7-1.9-6.1-1.8-7.2c-1.7-1.5-4.4-4.3-5.7-8.5c-0.9-2.9-0.8-5.3-0.8-8
			c0.1-3.2,0.1-4.8,0.9-6.1c2.3-4,8.9-3.8,9.9-3.7c-3.2-2.4-6.1-3.7-7.9-4.4c-6.2-2.5-9.5-1.7-15.2-4.8
			C803.3,653.3,799.9,651.4,800.1,649.4z" style="fill:#FFFFFF;"/>
		<g>
			<g>
				<path d="M1036.4,589c-8.7-3.3-15.2,4-19.8,10.5c-6.9,9.7-12.8,20.1-17.8,30.9c-9.4,20.6-15.8,44.6-35.1,58.4
					c-1.6,1.1-0.1,3.7,1.5,2.6c15.6-11.3,23.4-29,30.5-46.3c4.3-10.4,8.9-20.6,14.5-30.3c2.8-4.7,5.7-9.4,8.9-13.8
					c3.8-5.3,8.9-11.9,16.4-9.1C1037.4,592.6,1038.2,589.7,1036.4,589L1036.4,589z" style="fill:#161616;"/>
			</g>
		</g>
		<g>
			<g>
				<path d="M861.5,654.1c-4.3,1.4-6-3.9-4.7-6.8c1-2.3,3.6-3.5,5.8-4.2c4.2-1.2,9-0.4,12.9,1.5
					c6.5,3.2,10.2,9.7,14.2,15.5c7,10.2,16.3,18.4,27.6,23.4c22.5,9.9,48.8,4.6,66.1-12.8c1.4-1.4-0.8-3.5-2.1-2.1
					c-11.8,12-28.5,18.4-45.3,16.8c-17.2-1.6-32.8-11.6-42.8-25.5c-7.4-10.5-16.7-24.6-32-19.5c-4.3,1.4-8.5,5.2-7.8,10.1
					c0.6,4.4,4.6,7.9,9,6.4C864.1,656.4,863.3,653.5,861.5,654.1L861.5,654.1z" style="fill:#161616;"/>
			</g>
		</g>
		<g>
			<g>
				<path d="M851.1,650c-8-4-16.4-7.1-25.3-8c-7.8-0.8-18.7-0.5-25.1,4.8c-5.8,4.8,1.8,7.9,5.9,9.6
					c9.4,3.9,20,5.1,29.1,9.8c1.7,0.9,3.2-1.7,1.5-2.6c-5.6-2.9-11.6-4.3-17.6-6c-3.2-0.9-6.3-1.9-9.4-3.1c-1.7-0.6-5.1-1.3-6.4-2.7
					c-2.3-2.4,0.6-3.9,2.8-4.7c13.9-5.7,30.3-0.9,43.1,5.5C851.3,653.4,852.8,650.8,851.1,650L851.1,650z" style="fill:#161616;"/>
			</g>
		</g>
		<g>
			<g>
				<path d="M835,664.3c-4.3-2.6-9.7-2.9-14-0.2c-3.5,2.1-6.4,6.7-4.8,10.8c1.8,4.7,8.8,5.2,12.9,6
					c6.3,1.1,12.3,1.1,18.1-1.8c1.7-0.9,0.2-3.5-1.5-2.6c-6.5,3.3-13.7,2.1-20.6,0.5c-2.7-0.6-2.8-0.5-4.5-3.4
					c-2.2-1.8-2.1-3.7,0.1-5.5c0.6-0.5,1.2-0.9,1.8-1.4c3.4-2.1,7.6-1.8,11,0.2C835.1,667.9,836.6,665.3,835,664.3L835,664.3z" style="fill:#161616;"/>
			</g>
		</g>
		<g>
			<g>
				<path d="M817.8,676.6c-2,5.5,0.6,11.2,5.7,13.9c6.6,3.5,14.1,0.9,20.4-1.6c1.8-0.7,1-3.6-0.8-2.9
					c-4.2,1.7-8.8,3.5-13.4,3.1c-6-0.5-11.3-5.4-9-11.7C821.3,675.6,818.4,674.8,817.8,676.6L817.8,676.6z" style="fill:#161616;"/>
			</g>
		</g>
		<g>
			<g>
				<path d="M822.5,689.2c-1.8,5.6,2.7,10.3,7.8,11.8c7.5,2.1,13.5-2.1,18.9-6.8c1.5-1.3-0.7-3.4-2.1-2.1
					c-3.4,2.9-6.9,6-11.5,6.4c-4.6,0.4-12.2-2.4-10.2-8.5C826,688.2,823.1,687.4,822.5,689.2L822.5,689.2z" style="fill:#161616;"/>
			</g>
		</g>
		<g>
			<g>
				<path d="M839.9,669.6c3,1,7.6,3.7,5.2,7.4c-1,1.6,1.6,3.1,2.6,1.5c1.4-2.2,1.3-5.1-0.2-7.3
					c-1.5-2.4-4.2-3.7-6.9-4.5C838.8,666.1,838,669,839.9,669.6L839.9,669.6z" style="fill:#161616;"/>
			</g>
		</g>
		<g>
			<g>
				<path d="M844.2,679.8c2.1,2.3,1.2,5.9-1.8,6.8c-1.8,0.5-1.1,3.4,0.8,2.9c5.3-1.5,6.8-7.9,3.2-11.9
					C845,676.3,842.9,678.4,844.2,679.8L844.2,679.8z" style="fill:#161616;"/>
			</g>
		</g>
		<g>
			<g>
				<path d="M845.6,687.2c2,1.1,2.3,4.1,0.7,5.6c-1.4,1.3,0.7,3.5,2.1,2.1c3-2.9,2.4-8.3-1.3-10.3
					C845.5,683.7,843.9,686.3,845.6,687.2L845.6,687.2z" style="fill:#161616;"/>
			</g>
		</g>
		<g>
			<g>
				<path d="M849.1,652.4c2.2,1,4.4,2.1,6.6,3.1c1.7,0.8,3.3-1.8,1.5-2.6c-2.2-1-4.4-2.1-6.6-3.1
					C848.9,649,847.4,651.6,849.1,652.4L849.1,652.4z" style="fill:#161616;"/>
			</g>
		</g>
		<g>
			<g>
				<path d="M862.7,657c2.2-1.9,5.2-2.7,8.1-2c1.9,0.4,2.7-2.5,0.8-2.9c-4-0.9-7.9,0.1-11,2.8
					C859.1,656.2,861.2,658.3,862.7,657L862.7,657z" style="fill:#161616;"/>
			</g>
		</g>
		<g>
			<g>
				<path d="M864.4,660.6c-2.8,8.3,0.5,17.5,8,22c1.7,1,3.2-1.6,1.5-2.6c-6.4-3.8-9-11.7-6.6-18.6
					C867.9,659.5,865,658.7,864.4,660.6L864.4,660.6z" style="fill:#161616;"/>
			</g>
		</g>
		<g>
			<g>
				<path d="M843.3,698.9c6,4.3,12.5,5.2,19.6,3.8c9.9-1.8,19.4-2.7,29.5-1.6c1.9,0.2,1.9-2.8,0-3
					c-7.8-0.9-15.6-0.8-23.4,0.4c-8.9,1.4-16.2,3.5-24.2-2.2C843.2,695.2,841.7,697.8,843.3,698.9L843.3,698.9z" style="fill:#161616;"/>
			</g>
		</g>
		<g>
			<g>
				<path d="M889.8,699.8c14.3,6.8,27.5,15.9,42.3,21.5c13.6,5.1,28.5,6.1,42.7,2.6c14.6-3.6,26.4-12.2,36.7-22.9
					c10.7-11,20.3-23.4,27.1-37.3c8-16.2,11.9-34.2,9.9-52.2c-0.2-1.9-3.2-1.9-3,0c2.2,19.8-2.9,39.5-12.7,56.7
					c-9.1,16-22,32-37.1,42.8c-15.2,10.8-34.9,14.4-53.1,10.3c-18.6-4.2-34.3-16.1-51.4-24.2C889.6,696.4,888.1,699,889.8,699.8
					L889.8,699.8z" style="fill:#161616;"/>
			</g>
		</g>
		<path d="M1040.4,600.6c-3.9,0.2-3.4,16.8-8.1,33.8c-6.9,24.6-26.7,56.9-55.8,66.8c-20.6,7-41.4,1.2-74.5-8.1
			c-10.5-2.9-29-9-54.6-10.6c-21.1-1.3-26.3,1.7-26.5,3.3c-0.1,1,1.8,1.7,2.9,4.9c0.9,2.7-0.1,3.6,0.8,5.3c1.6,3.1,6.4,3.5,8.1,3.7
			c4.2,0.4,7.6-1.1,9.4-2c1.9,0.9,4.9,2.1,8.6,2.9c7.2,1.5,11.3,0.1,20.4-0.8c9.4-0.9,15.6-1.5,22.4,0.4c6.5,1.8,9.5,4.8,15.1,8.6
			c1.7,1.1,17.7,11.8,37.5,15.1c6.2,1,20.4,3.2,36.2-2.9c9-3.4,14.7-8.1,21.2-13.4c4.1-3.4,22.4-19,35.8-48.1
			c5.9-12.7,10.7-23.4,9.4-37.5C1047.6,611.7,1043.7,600.4,1040.4,600.6z" style="opacity:0.16;fill:#666666;"/>
		<path d="M849,690.2c4.8-2.4,10.4-0.4,12.6,0.4c12.5,4.3,13.7,1.3,32.6,4.1c15.6,2.3,16.2,6.8,36.7,13.4
			c19.7,6.4,35.6,11.5,51.3,6.5c22.3-7.1,32.6-29.6,33.4-28.9c0.8,0.6-8.2,22.4-29.7,32.6c-19.5,9.3-39.8,4.6-45.6,3.3
			c-9.4-2.2-17-5.8-25.3-9.8c-9.7-4.6-17.3-9.4-22.8-13c-7-0.3-12.5,0.3-16.3,0.8c-9.3,1.4-13.2,3.5-20.8,2.4
			c-2-0.3-10.3-1.5-11-5.3C843.7,694.2,846.4,691.5,849,690.2z" style="opacity:0.17;fill:#666666;"/>
	</g>
	<g id="torso">
		<path d="M1025.9,592.8c-2.7,3.3-6.2,8.8-8.8,52.5c-1.4,24.2-2.8,49.6-0.7,86.9c0.9,15.2,2.6,36,6.1,60.6
			c11.2,6.4,31.6,15.9,58.6,17.5c43.3,2.6,74.9-17,85.5-24.2c-5.4-10.7-12.8-27.3-17.5-48.5c-5.8-26-3-37.5-6.1-69.4
			c-4.1-42.2-6.1-63.3-18.9-76.1C1099.6,567.5,1045.8,568.3,1025.9,592.8z" style="fill:#3A3A3A;"/>
		<path d="M1080.4,574.8c7.1,10.6,16.2,26.3,23.4,46.7c3.1,8.9,18.5,54.7,7.3,113.6c-5.9,31.3-17.4,56.5-28.4,75.1
			c7.7,0.5,16.7,0.4,26.6-0.9c26.3-3.6,46-14.5,57.7-22.5c-3.7-6.8-8.4-16.4-12.4-28.4c-0.8-2.6-4.7-14.3-7.3-32.5
			c-1.8-12.4-1.5-16.5-2.7-36.7c-0.3-4.7-1.5-23.8-4.1-45.8c-3.8-32.2-6.7-39.2-11.5-45.4c-6.8-8.8-15.4-13.5-19.2-15.6
			C1097.8,576.2,1086.6,575,1080.4,574.8z" style="opacity:0.22;fill:#666666;"/>
		<path d="M1140.6,649.9c-1.5,16.2-3.5,32.9-5.9,50.1c-5.5,38.8-12.8,74.9-21.1,108c6.8-0.9,15.5-2.7,25-6.4
			c12.4-4.8,21.7-11.2,28-16.2c-13.3-23.4-17.9-43-19.6-57c-1.7-14.1-1.1-27.7-4.4-60.9C1141.8,660.1,1141.1,654,1140.6,649.9z" style="opacity:0.22;fill:#666666;"/>
	</g>
	<g id="head">
		<path d="M985.1,473.8c-2,4.9-1.9,10.7-1.9,22.4c0,8.3,0.1,19.9,4.4,33.6c3.3,10.6,6.5,21.2,16.4,30.6
			c2.8,2.7,14.9,14.2,32,14.2c3.3,0,6.1-0.4,7.9-0.8c0.8,3,2.5,7.2,5.7,11.5c1.7,2.2,3.4,3.9,4.9,5.2c2.4,0,8.5-0.4,14.8-4.4
			c6-3.9,8.8-9,9.8-11.2c-1.8-1.8-6.5-7.1-6.8-14.8c-0.1-2.1,0.2-3.9,0.5-5.5c3.3-4.2,6.8-9.7,9.8-16.4c1.5-3.3,2.6-6.4,3.6-9.3
			c1.5,0.4,4.5,0.9,7.4-0.5c3.1-1.6,4.2-4.7,5.5-8.5c1.9-5.6,4-11.9,1.4-17.5c-2.5-5.3-6.4-4.1-9.8-9c-5.2-7.3-0.1-14.7-2.2-22.7
			c-3.2-12.3-21-17.6-27.9-19.7C1032.3,442.6,993.9,452,985.1,473.8z" style="fill:#FFFFFF;"/>
		<path d="M982.5,488.2c2.5,0.4,4.1-3.5,8-7.4c4-3.9,10.7-8,22.7-9.1c9.8-1,19.6-2.1,29.4-3.1c3.1,0.2,10.2,1,17.3,5.9
			c5.7,4,8.8,8.8,10.3,11.4c3.1,0.1,6.1,0.3,9.2,0.4c0.6,3.7,1.3,7.4,1.9,11.1c0.4-0.4,5.8-5.2,11.4-3.4c4.5,1.4,6.4,6.2,7.2,8.4
			c2.5,6.1,0.8,11,2.3,11.4c1.8,0.6,5.3-6,5.7-6.9c0.9-1.7,3.8-7.6,4.6-16.8c0.6-7.5,1-12.5-1.9-17.2c-1-1.6-2-2.6-2.3-4.6
			c-0.5-3.8,2.5-5.9,4.2-9.5c0.9-1.9,1.1-3.7-1.5-17.5c-2.8-14.8-3.8-16.8-5.3-17.2c-2-0.4-3.8,2.3-6.1,4.6
			c-4,4.1-10.9,8.6-23.7,10.3c0-4.5-0.6-8.1-1.1-10.7c-0.9-4-1.4-4-4.6-13.4c-1.8-5.3-2.2-7.5-3.4-7.6c-2-0.2-2.7,4.9-7.4,6.7
			c-2.1,0.8-2.9,0.1-5.7,0.5c-2.5,0.3-5.9,1.4-9.8,4.7c0,0-6,4.1-16,9.2c-11.1,5.6-14.8-0.5-26.3,4.6c-8.6,3.8-13.8,10.6-16,13.7
			c-2.2,3.1-8.4,12.1-8.4,24.5C977,478.3,979,487.7,982.5,488.2z" style="fill:#353535;"/>
		<g>
			<g>
				<path d="M982.6,492.2c-1.7,17,1.1,34.3,8.3,49.8c6.1,13.1,15.8,26.1,29.8,31.3c14.3,5.3,30.7,1.4,42.6-7.6
					c12.1-9.2,19.7-22.9,24.2-37.2c0.6-1.8-2.3-2.6-2.9-0.8c-4.3,13.6-11.5,26.7-23,35.5c-11.9,9-28.6,12.8-42.5,6.2
					c-12.5-5.9-20.9-18.2-26.3-30.5c-6.5-14.7-8.8-30.8-7.2-46.7C985.8,490.3,982.8,490.3,982.6,492.2L982.6,492.2z" style="fill:#161616;"/>
			</g>
		</g>
		<g>
			<g>
				<path d="M1083.4,499.7c1.4-6.1,8.5-5.9,12.1-2c3.1,3.2,3.8,7.9,3.9,12.2c0.2,7.2-2.4,20.5-12.7,17.2
					c-1.8-0.6-2.6,2.3-0.8,2.9c14.6,4.7,17.8-15.6,16-25.4c-1.1-5.7-4.8-11.8-11.1-12.6c-4.8-0.6-9.2,2.4-10.3,7.1
					C1080.1,500.7,1083,501.5,1083.4,499.7L1083.4,499.7z" style="fill:#161616;"/>
			</g>
		</g>
		<g>
			<g>
				<path d="M1019.7,493.4c-2.3,4.8-4.6,9.5-6.8,14.3c-1.1,2.5-2.3,5-2.1,7.9c0.5,5.9,5.7,9.8,11.1,11.1
					c1.9,0.5,2.7-2.4,0.8-2.9c-6.5-1.6-10.5-6.8-7.7-13.4c2.2-5.2,4.8-10.3,7.3-15.5C1023.1,493.2,1020.5,491.7,1019.7,493.4
					L1019.7,493.4z" style="fill:#161616;"/>
			</g>
		</g>
		<g>
			<g>
				<path d="M1005.1,506.5c-0.6-0.7-1-1.6-1.1-2.5c-0.1-0.4-0.1-0.9,0-1.3c0-0.3,0.5-1.2,0.5-1.4
					c-0.2,0-0.3,0.1-0.5,0.1c0.1,0.3,0.1,0.6,0.1,0.9c0,0.5,0,1,0,1.5c-0.1,1.3-0.4,2.5-0.9,3.7c0.8-0.2,1.7-0.4,2.5-0.7
					c-1-0.9-1.4-1.8-1.3-3.2c0.2-1.9-2.8-1.9-3,0c-0.2,2,0.6,4,2.2,5.3c0.9,0.8,2.1,0.4,2.5-0.7c0.9-2.3,1.3-4.9,0.9-7.3
					c-0.3-1.7-1.7-3.4-3.5-2.6c-1.7,0.7-2.4,3.1-2.4,4.9c0,2,0.7,3.9,2.1,5.4C1004.3,510.1,1006.4,507.9,1005.1,506.5L1005.1,506.5z
					" style="fill:#161616;"/>
			</g>
		</g>
		<g>
			<g>
				<path d="M1043.3,505c-0.3-0.8-0.5-1.5-0.5-2.3c0-0.4,0.1-0.8,0.2-1.2c0-0.1,0.1-0.3,0.1-0.4c0.2-0.3,0.1-0.3-0.4,0
					c0,0.1,0.2,0.6,0.2,0.8c0,0.4,0,0.8-0.1,1.2c-0.2,0.9-0.6,1.7-1.1,2.4c0.8,0.1,1.6,0.2,2.4,0.3c-1.2-1.7-1.1-3.7,0.2-5.4
					c-0.8,0.1-1.6,0.2-2.4,0.3c1,1.2,0.3,3-0.9,3.6c0.7,0.3,1.5,0.6,2.2,0.9c-0.3-0.8-0.5-1.5-0.6-2.4c0-0.5,0.1-1,0.1-1.5
					c0-0.2,0.1-0.3,0.1-0.5c-0.3-0.4-0.4-0.5-0.2-0.2c0.3,0.8,0.5,1.4,0.4,2.3c0,0.4-0.2,1-0.2,1.3c0,0.2-0.1,0.3-0.1,0.5
					c0.7-0.1,0.8-0.3,0.4-0.7c-1.1-1.6-3.7-0.1-2.6,1.5c1.1,1.6,3.5,3,4.8,0.7c1-1.9,1-5.2,0-7c-1.1-1.9-3.7-2.5-5-0.4
					c-1.2,2-0.9,5-0.1,7.1c0.4,0.9,1.3,1.4,2.2,0.9c3.1-1.6,3.7-5.7,1.5-8.3c-0.7-0.8-1.8-0.4-2.4,0.3c-1.8,2.4-1.9,5.9-0.2,8.4
					c0.5,0.7,1.7,1.1,2.4,0.3c1.8-2.3,3.7-7.7,0.1-9.4c-1.6-0.7-3,0.3-3.5,1.8c-0.7,1.9-0.7,4,0.1,5.8
					C1041.2,507.5,1044.1,506.8,1043.3,505L1043.3,505z" style="fill:#161616;"/>
			</g>
		</g>
		<g>
			<g>
				<path d="M1011.3,488.2c-5.2-3.4-12-1.8-15.3,3.3c-1,1.6,1.6,3.1,2.6,1.5c2.4-3.8,7.4-4.7,11.2-2.3
					C1011.4,491.8,1012.9,489.2,1011.3,488.2L1011.3,488.2z" style="fill:#161616;"/>
			</g>
		</g>
		<g>
			<g>
				<path d="M1038.9,489c4.6-3.9,11.7-2.7,13.8,3.2c0.6,1.8,3.5,1,2.9-0.8c-2.9-8.1-12.5-10-18.8-4.5
					C1035.4,488.1,1037.5,490.2,1038.9,489L1038.9,489z" style="fill:#161616;"/>
			</g>
		</g>
		<g>
			<g>
				<path d="M1042.6,574.9c1.6,5.9,4.7,11.2,9.2,15.4c1.4,1.3,3.5-0.8,2.1-2.1c-4.1-3.9-7-8.6-8.4-14.1
					C1044.9,572.2,1042,573,1042.6,574.9L1042.6,574.9z" style="fill:#161616;"/>
			</g>
		</g>
		<g>
			<g>
				<path d="M1070.2,556.4c0.9,6.7,3.2,12.8,7.1,18.4c1.1,1.6,3.7,0.1,2.6-1.5c-3.6-5.1-5.9-10.7-6.7-16.9
					C1073,554.6,1070,554.5,1070.2,556.4L1070.2,556.4z" style="fill:#161616;"/>
			</g>
		</g>
		<g>
			<g>
				<path d="M1052,590.8c10.8,3.7,23.2-5,27.2-14.9c0.7-1.8-2.2-2.6-2.9-0.8c-3.4,8.4-14.5,15.9-23.5,12.8
					C1051,587.3,1050.2,590.2,1052,590.8L1052,590.8z" style="fill:#161616;"/>
			</g>
		</g>
		<g>
			<g>
				<path d="M1044.4,576.5c7.2-1.2,13.6-4.6,18.7-9.8c1.3-1.4-0.8-3.5-2.1-2.1c-4.8,4.9-10.7,7.9-17.4,9.1
					C1041.7,574,1042.5,576.8,1044.4,576.5L1044.4,576.5z" style="fill:#161616;"/>
			</g>
		</g>
		<g>
			<g>
				<path d="M1046.1,578.5c8.4-2.4,17.9-9,21.7-17c0.8-1.7-1.8-3.3-2.6-1.5c-3.5,7.3-12.2,13.5-20,15.7
					C1043.4,576.2,1044.2,579,1046.1,578.5L1046.1,578.5z" style="fill:#161616;"/>
			</g>
		</g>
		<g>
			<g>
				<path d="M983.1,480.8c-5.7-6.7-3.4-18.7-0.6-26.3c3.4-9.3,10.1-16.3,19.8-19c8.5-2.4,17.6-2.1,25.9-5.3
					c9.2-3.6,15.9-13.5,26.5-12.8c1.9,0.1,1.9-2.9,0-3c-12.1-0.8-19.5,10.8-30.4,13.9c-10.5,3.1-22.2,2-31.7,8.1
					c-7.5,4.8-12.2,12.9-14.3,21.4c-2.1,8.1-3.2,18.4,2.6,25.1C982.2,484.4,984.4,482.3,983.1,480.8L983.1,480.8z" style="fill:#383838;"/>
			</g>
		</g>
		<g>
			<g>
				<path d="M1015.1,469.5c-0.8-7.3,0.8-14.5,5.1-20.5c4.8-6.7,12.1-9.7,19.3-13.1c6-2.8,11.5-6.3,15.8-11.4
					c4.2-4.8,6.3-11.9,11.6-15.6c-0.7-0.2-1.4-0.4-2.1-0.5c5,11.7,15,26,6,38.4c-1.1,1.6,1.5,3.1,2.6,1.5c9.7-13.4-0.6-28.7-6-41.4
					c-0.3-0.7-1.4-1-2.1-0.5c-5.8,3.9-7.8,10.9-12.3,16c-5.9,6.9-13.6,10-21.5,13.8c-13,6.3-21.3,18.5-19.6,33.3
					C1012.3,471.4,1015.4,471.4,1015.1,469.5L1015.1,469.5z" style="fill:#383838;"/>
			</g>
		</g>
		<g>
			<g>
				<path d="M1043.4,468.1c6.4-11.9,16.9-21.2,29.7-25.7c6-2.1,12.3-3.3,18-6.2c5.5-2.7,10.2-6.5,14.3-11
					c-0.8-0.1-1.6-0.2-2.4-0.3c3.7,7.9,7.2,16.8,7.9,25.5c0.7,9.4-4.5,16.6-10.2,23.5c-1.2,1.5,0.9,3.6,2.1,2.1
					c5.7-7,11.3-14.4,11.1-23.8c-0.2-9.9-4.3-20-8.4-28.8c-0.4-0.9-1.7-1-2.4-0.3c-5.2,5.6-11.4,10-18.6,12.6
					c-6.1,2.2-12.5,3.4-18.4,6.3c-10.9,5.3-19.8,14-25.5,24.6C1039.9,468.3,1042.5,469.8,1043.4,468.1L1043.4,468.1z" style="fill:#383838;"/>
			</g>
		</g>
		<g>
			<g>
				<path d="M1106.4,468.7c7.2,14,5.9,30.6-3.3,43.3c-1.1,1.6,1.5,3.1,2.6,1.5c9.9-13.6,11-31.4,3.3-46.3
					C1108.1,465.5,1105.5,467,1106.4,468.7L1106.4,468.7z" style="fill:#383838;"/>
			</g>
		</g>
		<path d="M1069.2,484.9c0.3,4.9,0.5,12,0,20.5c-1,15.2-1.8,28.3-8.5,40.6c-8.4,15.3-22.8,23.3-32.4,27.3
			c4.6,0.3,12,0.1,20.5-2.7c7-2.3,12.3-5.6,15.7-8.2c1.9,7.5,3.9,15,5.8,22.5c3-3.6,5.9-7.3,8.9-10.9c-2.6-5.2-5.2-10.5-7.8-15.7
			c2.1-3.4,4.1-7,6.1-10.9c3.6-6.8,6.5-13.3,8.9-19.5c1.3,0.5,5.1,1.8,8.5,0c3.8-2,4.7-6.5,5.5-10.6c0.8-4.3,3-15.8-3.8-20.8
			c-2.8-2.1-7.7-3.5-11.6-1.4c-2.1,1.2-3.2,3-3.8,4.1c-0.5-4.1-0.9-8.2-1.4-12.3C1076.3,486.3,1072.7,485.6,1069.2,484.9z" style="opacity:0.14;fill:#666666;"/>
		<path d="M1046.3,467.9c5.6-6.1,12.3-14.8,18.1-26.3c4.1-8.2,6.8-15.8,8.5-22.2c4.5,8.1,4.1,14.6,3.8,17.4
			c-1.7,12.8-13.3,20.8-19.8,25.3C1052.8,464.9,1049,466.7,1046.3,467.9z" style="opacity:0.2;fill:#212121;"/>
		<path d="M1066.8,479.1c5.7-2,12.4-4.9,19.5-9.2c12.9-7.9,21.6-17.3,27-24.2c0.7,4.2,1.4,12.5-3.1,20.1
			C1103,478.2,1085.3,484.2,1066.8,479.1z" style="opacity:0.16;fill:#212121;"/>
		<path d="M1001.3,473.7c-0.2-4.2,0.1-10.2,2-17.1c4.5-15.8,15.7-27.6,17.4-26.6
			C1022.1,430.8,1018.7,440.2,1001.3,473.7z" style="opacity:0.22;fill:#212121;"/>
		<g>
			<g>
				<path d="M1006.2,538.1c14.9,0.7,29.4-2.3,42.8-8.9c1.3-0.6,0.2-2.6-1.1-1.9c-13,6.4-27.2,9.3-41.6,8.6
					C1004.7,535.8,1004.8,538,1006.2,538.1L1006.2,538.1z" style="fill:#161616;"/>
			</g>
		</g>
		<g>
			<g>
				<path d="M1007.7,538.5c2,3.6,3.4,7.5,4.2,11.5c0.3,1.4,2.4,0.8,2.2-0.6c-0.8-4.2-2.3-8.3-4.4-12.1
					C1009,536.1,1007,537.3,1007.7,538.5L1007.7,538.5z" style="fill:#161616;"/>
			</g>
		</g>
		<g>
			<g>
				<path d="M1012.1,550.1c6,5.8,15.7,2.9,22.1-0.8c7.7-4.3,13.3-11.5,15.2-20.1c0.3-1.4-1.9-2-2.2-0.6
					c-1.6,7.1-5.7,13.1-11.7,17.3c-5.7,3.9-16,8.3-21.8,2.6C1012.7,547.5,1011.1,549.1,1012.1,550.1L1012.1,550.1z" style="fill:#161616;"/>
			</g>
		</g>
		<g>
			<g>
				<path d="M1010.7,542.6c6.8,1.8,14.6-0.2,21.1-2.2c6.3-1.9,12.1-5,16.5-10c1-1.1-0.6-2.7-1.6-1.6
					c-4.2,4.7-9.5,7.6-15.5,9.4c-6.1,1.8-13.6,3.9-19.9,2.2C1009.9,540.1,1009.3,542.3,1010.7,542.6L1010.7,542.6z" style="fill:#161616;"/>
			</g>
		</g>
		<g>
			<g>
				<path d="M1011.7,543.7c0.8,1.9,1.6,3.8,2.4,5.7c0.5,1.2,2.5,0.3,2.1-0.9c-0.7-1.8-1.2-3.5-1.6-5.4
					c-0.5,0.5-0.9,0.9-1.4,1.4c2.4,0.4,4.8,0.6,7.3,0.6c1.2,0,1.6-2,0.3-2.2c-2.3-0.4-4.1-0.3-6.4,0.4c-0.7,0.2-1.1,1-0.7,1.7
					c0.6,0.9,1.3,1.9,1.9,2.8c0.8,1.2,2.6,0.2,1.9-1.1c-0.3-0.9-0.6-1.8-0.9-2.6c-0.7,0.3-1.4,0.6-2.1,0.9c1,1.3,1.4,2.7,1,4.2
					c0.7-0.2,1.4-0.4,2.1-0.6c-1.4-2.3-2.6,0.4-2.9,1.1c-0.3,0.9,0.9,1.9,1.7,1.3c8.2-6.2,17.8-9.3,27.5-12.3
					c1.4-0.4,0.8-2.6-0.6-2.2c-9.9,3-19.7,6.2-28,12.5c0.6,0.4,1.1,0.8,1.7,1.3c0.4-0.9,1.6-1.1,1.8-2.5c0.2-1.2-0.3-3-1.6-3.4
					c-3.6-1.2-2.3,3.9-1.4,5.3c0.6,1,2,0.5,2.1-0.6c0.2-2.1-0.2-3.6-1.3-5.3c-0.7-1-2.4-0.4-2.1,0.9c0.4,1.7,0.4,1.6,1.1,3.2
					c0.6-0.4,1.3-0.8,1.9-1.1c-0.6-0.9-1.3-1.9-1.9-2.8c-0.2,0.6-0.4,1.1-0.7,1.7c1.7-0.7,3.4-0.8,5.2-0.4c0.1-0.7,0.2-1.5,0.3-2.2
					c-2.3,0-4.3-0.1-6.7-0.5c-0.9-0.2-1.6,0.5-1.4,1.4c0.4,1.9,0.9,3.6,1.6,5.4c0.7-0.3,1.4-0.6,2.1-0.9c-0.8-1.9-1.6-3.8-2.4-5.7
					C1013.1,541.2,1011.1,542.4,1011.7,543.7L1011.7,543.7z" style="fill:#161616;"/>
			</g>
		</g>
		<g>
			<g>
				<path d="M1018.1,547.3c3.5-2.1,7.1-3.7,11-5.1c-0.3-0.7-0.6-1.4-0.9-2.1c-3.5,1.6-7,3.2-10.4,4.7
					c-1.1,0.5-0.3,2.5,0.9,2.1c9.4-3.7,18.7-7.5,27.2-13.1c-0.6-0.4-1.1-0.8-1.7-1.3c-1.3,3.5-7.1,3.9-10.1,5
					c-2.5,0.9-4.9,2.1-7.4,3c-3.5,1.2-7.6,1-10.3,4c-1,1.1,0.6,2.7,1.6,1.6c2.2-2.5,6.3-2.4,9.3-3.4c3-1,5.9-2.5,9-3.5
					c4.2-1.3,8.4-1.4,10.1-6c0.3-0.9-0.9-1.8-1.7-1.3c-8.3,5.4-17.5,9.2-26.7,12.8c0.3,0.7,0.6,1.4,0.9,2.1c3.5-1.6,7-3.2,10.4-4.7
					c1.2-0.5,0.3-2.5-0.9-2.1c-4,1.4-7.8,3.2-11.5,5.3C1015.7,546.1,1016.9,548.1,1018.1,547.3L1018.1,547.3z" style="fill:#161616;"/>
			</g>
		</g>
		<g>
			<g>
				<path d="M1045.1,536.3c0-0.1-0.1-0.2-0.1-0.3c0-0.1,0,0,0,0.2c-0.1,0.1-0.3,0.3-0.4,0.4c0,0,0.1,0,0.1,0
					c-0.3,0-0.6,0.1-0.9,0.1c-0.5-0.1-0.5-1-0.6-0.4c0,0.2,0,0.3,0.1,0.5c0.1,0.4,0.3,0.6,0.7,0.9c0.5,0.4,1.3,0.1,1.5-0.4
					c0.3-0.6,0.1-1.2-0.4-1.5c0,0-0.1,0-0.1-0.1c0.1,0.1,0.3,0.3,0.4,0.4c0.1,0.3,0.1,0.3,0.1,0.1c0-0.1,0-0.2,0-0.2
					c0-0.3-0.1-0.6-0.2-0.8c-0.3-0.4-0.7-0.7-1.2-0.7c-1.3,0-1.5,1.5-1.1,2.4c0.2,0.6,0.7,1,1.4,0.8
					C1044.9,537.5,1045.4,536.8,1045.1,536.3L1045.1,536.3z" style="fill:#161616;"/>
			</g>
		</g>
		<g>
			<g>
				<path d="M1045.3,527.2c1.9,0.8,3.5,2.1,4.6,3.9c0.7,1.2,2.7,0.1,1.9-1.1c-1.4-2.3-3.4-4-5.9-4.9
					C1044.5,524.5,1043.9,526.7,1045.3,527.2L1045.3,527.2z" style="fill:#161616;"/>
			</g>
		</g>
		<g>
			<g>
				<path d="M1018,551.7c7.9-5.6,16.6-9.5,26-11.6c1.4-0.3,0.8-2.5-0.6-2.2c-9.7,2.1-18.5,6.1-26.6,11.8
					C1015.7,550.6,1016.8,552.6,1018,551.7L1018,551.7z" style="fill:#161616;"/>
			</g>
		</g>
		<g>
			<g>
				<path d="M1016,549.9c9.8-0.5,18.9-3.5,27-9c1.2-0.8,0.1-2.8-1.1-1.9c-7.8,5.3-16.5,8.3-25.9,8.7
					C1014.5,547.8,1014.5,550,1016,549.9L1016,549.9z" style="fill:#161616;"/>
			</g>
		</g>
		<g>
			<g>
				<path d="M1025.1,547.4c5.5-1.2,10.6-3.3,15.4-6.3c1.2-0.8,0.1-2.7-1.1-1.9c-4.6,2.9-9.5,4.9-14.8,6.1
					C1023.1,545.5,1023.7,547.7,1025.1,547.4L1025.1,547.4z" style="fill:#161616;"/>
			</g>
		</g>
		<g>
			<g>
				<path d="M1018.2,551.3c8-0.2,15.4-2.5,22-7c1.2-0.8,0.1-2.8-1.1-1.9c-6.3,4.3-13.3,6.5-20.9,6.7
					C1016.8,549.1,1016.8,551.4,1018.2,551.3L1018.2,551.3z" style="fill:#161616;"/>
			</g>
		</g>
		<g>
			<g>
				<path d="M1018.2,551.1c-0.1,1.7,1.5,1.9,2.8,1.7c3-0.4,5.9-1.1,8.8-1.8c1.4-0.4,0.8-2.5-0.6-2.2
					c-1.5,0.4-3,0.7-4.6,1c-0.7,0.1-4.1,0.3-4.2,1.2C1020.6,549.7,1018.3,549.7,1018.2,551.1L1018.2,551.1z" style="fill:#161616;"/>
			</g>
		</g>
	</g>
	<g id="hand_left">
		<path d="M1037.3,562.8c1-2.8,10-2.2,17.8-1.2c0-1.5,0.3-3.7,1.2-6.1c0.7-1.9,1.8-3.8,5.8-8.2c4.3-4.7,6.5-7,9.3-8.7
			c2.1-1.3,5.6-3,10.5-3.8c2,0.7,4.1,1.4,6.1,2c0.6-1.9,1.8-5.5,4.1-12.5c1.5-4.7,2.4-7.1,4.4-7.9c2-0.7,4.7,0,6.1,1.7
			c2,2.5,0.2,6.1-0.9,12.2c-0.6,3.5-0.1,2.9-0.3,16c-0.2,13.4-0.7,13.3-0.6,18.9c0.1,5.2,0.8,12.6,3.2,21.5c2.2-1,5.7-2.1,9.9-2
			c9.8,0.1,16.7,6.5,21.8,11.4c10,9.5,14.3,20,17.2,27.4c5.6,14.3,6.3,26.2,6.4,31.4c0.1,8.1,0.3,15.7-3.8,24.5
			c-1.3,2.8-4.9,10.3-13.1,16c-3.4,2.4-9.8,6.8-18.1,6.1c-4.8-0.4-9.1-2.4-13.7-6.1c-15.4-12.5-22.5-35.2-24.7-43.1
			c-4.2-14.4-8.8-35.3-9.6-61.4c-2.2-0.1-4.8-0.6-7.6-1.7c-10.3-4.3-14.3-14.6-15.1-17.2c-2.1,0.1-9.6,0-14.3-5.2
			C1038.3,565.6,1036.9,564.1,1037.3,562.8z" style="fill:#FFFFFF;"/>
		<g>
			<g>
				<path d="M1051.2,569.8c-5.3-0.4-11.4-2.4-12.8-8.2c-0.3,0.6-0.7,1.2-1,1.8c7.7-1.6,15.4,0.7,23.1-0.4
					c1.9-0.3,1.1-3.2-0.8-2.9c-7.7,1.1-15.4-1.2-23.1,0.4c-0.8,0.2-1.2,1.1-1,1.8c1.7,7.2,9,9.9,15.7,10.4
					C1053.2,572.9,1053.2,569.9,1051.2,569.8L1051.2,569.8z" style="fill:#161616;"/>
			</g>
		</g>
		<g>
			<g>
				<path d="M1056.9,559.1c-1.2-7.1,9.7-6.7,13.8-5.6c1.9,0.5,2.7-2.4,0.8-2.9c-6.7-1.8-19.1-0.5-17.5,9.2
					C1054.3,561.8,1057.2,561,1056.9,559.1L1056.9,559.1z" style="fill:#161616;"/>
			</g>
		</g>
		<g>
			<g>
				<path d="M1061.2,552.2c0.9-3.5,2.8-6.7,6.2-8.3c4-1.8,8,0,11.7,1.6c1.7,0.8,3.3-1.8,1.5-2.6
					c-4.6-2.1-9.5-4.1-14.4-1.8c-4.2,1.9-6.8,5.9-7.9,10.3C1057.9,553.3,1060.8,554.1,1061.2,552.2L1061.2,552.2z" style="fill:#161616;"/>
			</g>
		</g>
		<g>
			<g>
				<path d="M1071.7,540.2c-0.2-0.2,3.2-3,3.7-3.3c1.4-0.7,3-1.1,4.6-1.1c3.9,0,7.4,1.9,10.5,3.9c1.6,1,3.1-1.5,1.5-2.6
					c-5-3.2-11.1-5.7-17-3.3c-2.5,1-8.5,5.5-5.5,8.6C1070.9,543.7,1073,541.6,1071.7,540.2L1071.7,540.2z" style="fill:#161616;"/>
			</g>
		</g>
		<g>
			<g>
				<path d="M1101.4,565.5c1.2-8.5,1.6-16.9,1-25.5c-0.3-4.9,0.2-8.7,1.4-13.5c0.6-2.5,1.1-5.1,0.4-7.6
					c-1.1-3.4-4.9-6.2-8.5-4.4c-2.3,1.2-2.9,3.9-3.7,6.2c-1.5,4.3-2.9,8.7-4.3,13c-0.6,1.8,2.3,2.6,2.9,0.8c0.8-2.5,1.6-5,2.5-7.4
					c0.5-1.5,1.3-6.5,2.5-7.4c5-0.6,7,0.8,5.8,4.4c-0.3,1.2-0.6,2.3-1,3.5c-0.5,1.9-1,3.7-1.2,5.6c-0.4,4.8,0.5,9.8,0.5,14.7
					c0,5.7-0.4,11.3-1.2,16.9C1098.3,566.6,1101.2,567.4,1101.4,565.5L1101.4,565.5z" style="fill:#161616;"/>
			</g>
		</g>
		<g>
			<g>
				<path d="M1049.6,573c5.2,0.4,6.5,5.8,8.9,9.4c1.2,1.9,2.7,3.6,4.5,5c3.5,2.8,7.6,4.3,12.1,4.7c1.9,0.2,1.9-2.8,0-3
					c-7.6-0.7-12.4-5.1-15.9-11.5c-2.2-4-4.8-7.2-9.6-7.5C1047.6,569.9,1047.7,572.9,1049.6,573L1049.6,573z" style="fill:#161616;"/>
			</g>
		</g>
		<g>
			<g>
				<path d="M1074.6,590.8c3.1,10.7,3.4,21.7,4.3,32.7c0.8,9.3,2.3,18.6,4.9,27.5c5.1,17.2,13.9,33.1,26.6,45.9
					c1.4,1.4,3.5-0.8,2.1-2.1c-13.1-13.2-22-29.8-26.7-47.7c-5-18.8-2.9-38.5-8.3-57.1C1076.9,588.2,1074,589,1074.6,590.8
					L1074.6,590.8z" style="fill:#161616;"/>
			</g>
		</g>
		<g>
			<g>
				<path d="M1098.5,564.3c1.5,16.7,6.4,33,14.6,47.6c8,14.2,20.3,26.5,23.1,43.1c0.3,1.9,3.2,1.1,2.9-0.8
					c-2.5-15.1-12.8-26.6-20.7-39.2c-9.5-15.3-15.2-32.7-16.9-50.6C1101.3,562.4,1098.3,562.4,1098.5,564.3L1098.5,564.3z" style="fill:#161616;"/>
			</g>
		</g>
		<g>
			<g>
				<path d="M1105.4,587.5c14.9-4.8,29.6,7.2,37.4,18.8c8.2,12.2,11.9,27.2,13.6,41.7c1.6,14.2,0.5,29.7-9,41.1
					c-8.8,10.6-25.1,14.8-36.2,5.2c-1.5-1.3-3.6,0.9-2.1,2.1c10.5,9.1,26,7.8,36.3-1c12.6-10.7,15.7-28.1,14.4-43.8
					c-1.4-17.1-5.7-35.4-16.1-49.4c-8.7-11.6-23.9-22.5-39-17.7C1102.8,585.2,1103.5,588.1,1105.4,587.5L1105.4,587.5z" style="fill:#161616;"/>
			</g>
		</g>
		<path d="M1098.9,519.9c-5.3,2-4.9,15.6-4.5,25.4c1.4,29.1,2.1,43.7,7.8,66.1c8.2,31.9,15.7,40.2,19.8,44.1
			c5.9,5.6,17.2,13.7,22,10.5c7.6-5.1-4.5-35.5-7.5-42.9c-10.1-25.2-12.3-33.6-19.8-36.2c-4.5-1.5-8.9-0.9-12,0
			c-4.3-9.2-5-16.6-4.9-21.7c0.1-4.3,0.8-4.3,1.1-10.8c0.6-11.8-1.5-12.5-0.4-20.2c1.1-7.5,4-12,1.9-13.8
			C1101.7,519.4,1100,519.5,1098.9,519.9z" style="opacity:0.15;fill:#666666;"/>
		<path d="M1107.5,592c7.1,6.9,12,13.5,15.3,18.7c8.1,12.5,11.5,23.7,12.7,28c1.7,6.1,2.5,11.4,3,15.3
			c-1.7-5.2-4.9-13-10.5-21.7c-4.5-7-7.4-9.4-11.2-15.7C1113.7,611.4,1109.8,603.4,1107.5,592z" style="opacity:0.15;fill:#666666;"/>
	</g>
</g>
</svg>